<svg width="273" height="164" viewBox="0 0 273 164" fill="none" xmlns="http://www.w3.org/2000/svg">
<path d="M76.9279 59.2006C76.9279 62.5549 77.2911 65.2747 77.9266 67.2692C78.6529 69.2637 79.5608 71.4396 80.8318 73.7967C81.2858 74.522 81.4674 75.2473 81.4674 75.8819C81.4674 76.7885 80.9226 77.6951 79.7424 78.6017L74.0226 82.4093C73.2055 82.9533 72.3884 83.2253 71.6621 83.2253C70.7542 83.2253 69.8463 82.772 68.9384 81.956C67.6674 80.5962 66.5779 79.1456 65.67 77.6951C64.7621 76.1538 63.8542 74.4313 62.8555 72.3462C55.774 80.6868 46.8766 84.8571 36.1634 84.8571C28.5371 84.8571 22.4542 82.6813 18.0055 78.3297C13.5568 73.978 11.2871 68.1758 11.2871 60.9231C11.2871 53.217 14.0108 46.9615 19.549 42.2473C25.0871 37.533 32.4411 35.1758 41.7924 35.1758C44.8792 35.1758 48.0568 35.4478 51.4161 35.9011C54.7753 36.3544 58.2253 37.0797 61.8568 37.8956V31.2775C61.8568 24.3874 60.4042 19.5824 57.5897 16.772C54.6845 13.9615 49.7818 12.6016 42.7911 12.6016C39.6134 12.6016 36.345 12.9643 32.9858 13.7802C29.6266 14.5962 26.3582 15.5934 23.1805 16.8626C21.7279 17.4973 20.6384 17.8599 20.0029 18.0412C19.3674 18.2225 18.9134 18.3132 18.5503 18.3132C17.2792 18.3132 16.6437 17.4066 16.6437 15.5027V11.0604C16.6437 9.60989 16.8253 8.52198 17.2792 7.88736C17.7332 7.25275 18.5503 6.61813 19.8213 5.98352C22.999 4.35165 26.8121 2.99176 31.2608 1.90385C35.7095 0.725275 40.4305 0.181319 45.424 0.181319C56.2279 0.181319 64.1266 2.62912 69.2108 7.52472C74.2042 12.4203 76.7463 19.8544 76.7463 29.8269V59.2006H76.9279ZM40.0674 72.9808C43.0634 72.9808 46.1503 72.4368 49.4187 71.3489C52.6871 70.261 55.5924 68.2665 58.0437 65.5467C59.4963 63.8242 60.5858 61.9203 61.1305 59.7445C61.6753 57.5687 62.0384 54.9396 62.0384 51.8571V48.0494C59.4055 47.4148 56.5911 46.8709 53.6858 46.5082C50.7805 46.1456 47.9661 45.9643 45.1516 45.9643C39.0687 45.9643 34.62 47.1429 31.624 49.5907C28.6279 52.0385 27.1753 55.4835 27.1753 60.0165C27.1753 64.2775 28.2647 67.4506 30.5345 69.6264C32.7134 71.8929 35.8911 72.9808 40.0674 72.9808ZM112.971 82.772C111.337 82.772 110.248 82.5 109.521 81.8654C108.795 81.3214 108.159 80.0522 107.615 78.3297L86.2792 8.25C85.7345 6.43681 85.4621 5.25824 85.4621 4.62363C85.4621 3.17308 86.1884 2.35714 87.6411 2.35714H96.5384C98.2634 2.35714 99.4437 2.62912 100.079 3.26374C100.806 3.80769 101.35 5.07692 101.895 6.79945L117.148 66.8159L131.311 6.79945C131.765 4.98626 132.309 3.80769 133.036 3.26374C133.762 2.71978 135.033 2.35714 136.667 2.35714H143.931C145.656 2.35714 146.836 2.62912 147.562 3.26374C148.288 3.80769 148.924 5.07692 149.287 6.79945L163.632 67.5412L179.338 6.79945C179.883 4.98626 180.519 3.80769 181.154 3.26374C181.881 2.71978 183.061 2.35714 184.695 2.35714H193.138C194.591 2.35714 195.408 3.08242 195.408 4.62363C195.408 5.07692 195.317 5.53022 195.227 6.07418C195.136 6.61813 194.954 7.34341 194.591 8.34066L172.711 78.4203C172.166 80.2335 171.531 81.4121 170.804 81.956C170.078 82.5 168.898 82.8626 167.354 82.8626H159.546C157.821 82.8626 156.641 82.5907 155.915 81.956C155.188 81.3214 154.553 80.1429 154.19 78.3297L140.117 19.8544L126.136 78.239C125.682 80.0522 125.137 81.2308 124.411 81.8654C123.684 82.5 122.413 82.772 120.779 82.772H112.971ZM229.636 85.2198C224.915 85.2198 220.194 84.6758 215.654 83.5879C211.115 82.5 207.574 81.3214 205.213 79.9615C203.761 79.1456 202.762 78.239 202.399 77.4231C202.036 76.6071 201.854 75.7005 201.854 74.8846V70.261C201.854 68.3571 202.581 67.4505 203.942 67.4505C204.487 67.4505 205.032 67.5412 205.577 67.7225C206.121 67.9038 206.938 68.2665 207.846 68.6291C210.933 69.989 214.292 71.0769 217.833 71.8022C221.465 72.5275 225.006 72.8901 228.637 72.8901C234.357 72.8901 238.806 71.8929 241.892 69.8983C244.979 67.9038 246.613 65.0027 246.613 61.2857C246.613 58.7472 245.796 56.6621 244.162 54.9396C242.528 53.217 239.441 51.6758 234.992 50.2253L221.828 46.1456C215.2 44.0604 210.298 40.978 207.302 36.8983C204.306 32.9093 202.762 28.467 202.762 23.7527C202.762 19.9451 203.579 16.5907 205.213 13.6896C206.848 10.7885 209.027 8.25 211.75 6.25549C214.474 4.17033 217.561 2.62912 221.192 1.54121C224.824 0.453297 228.637 0 232.632 0C234.629 0 236.717 0.0906593 238.715 0.362637C240.803 0.634615 242.709 0.997253 244.616 1.35989C246.432 1.81319 248.157 2.26648 249.791 2.81044C251.425 3.3544 252.696 3.89835 253.604 4.44231C254.875 5.16758 255.783 5.89286 256.328 6.70879C256.873 7.43407 257.145 8.43132 257.145 9.70055V13.9615C257.145 15.8654 256.419 16.8626 255.057 16.8626C254.331 16.8626 253.15 16.5 251.607 15.7747C246.432 13.4176 240.621 12.239 234.175 12.239C229 12.239 224.915 13.0549 222.1 14.7775C219.286 16.5 217.833 19.1291 217.833 22.8462C217.833 25.3846 218.741 27.5604 220.557 29.283C222.373 31.0055 225.732 32.728 230.544 34.2692L243.436 38.3489C249.973 40.4341 254.694 43.3352 257.508 47.0522C260.323 50.7692 261.684 55.0302 261.684 59.7445C261.684 63.6429 260.867 67.1786 259.324 70.261C257.69 73.3434 255.511 76.0632 252.696 78.239C249.882 80.5055 246.523 82.1374 242.619 83.3159C238.533 84.5852 234.266 85.2198 229.636 85.2198Z" fill="white"/>
<path fill-rule="evenodd" clip-rule="evenodd" d="M246.795 129.28C216.925 151.31 173.528 163.005 136.213 163.005C83.9185 163.005 36.7988 143.695 1.20933 111.602C-1.60514 109.063 0.936963 105.618 4.29617 107.613C42.7909 129.915 90.2738 143.423 139.391 143.423C172.529 143.423 208.936 136.533 242.437 122.39C247.43 120.124 251.697 125.654 246.795 129.28Z" fill="#FF9900"/>
<path fill-rule="evenodd" clip-rule="evenodd" d="M259.233 115.137C255.42 110.242 233.993 112.78 224.279 113.959C221.374 114.321 220.92 111.783 223.553 109.879C240.621 97.9121 268.675 101.357 271.943 105.346C275.212 109.426 271.035 137.44 255.057 150.857C252.605 152.942 250.245 151.854 251.334 149.135C254.966 140.159 263.046 119.942 259.233 115.137Z" fill="#FF9900"/>
</svg>
