<svg width="233" height="52" viewBox="0 0 233 52" fill="none" xmlns="http://www.w3.org/2000/svg">
<path d="M185.68 51.0784H193.594C195.033 51.0784 195.824 50.2151 196.184 49.3518L198.773 43.5965H218.342L220.931 49.2798C221.579 50.6467 222.154 51.0784 223.449 51.0784H231.435C232.514 51.0784 233.09 50.1431 232.658 49.2079L210.14 0.791325C209.924 0.359679 209.421 0 208.917 0H208.198C207.694 0 207.191 0.359679 206.975 0.791325L184.457 49.2079C184.026 50.1431 184.601 51.0784 185.68 51.0784ZM203.09 33.8124L208.486 21.9421H208.557L214.025 33.8124H203.09ZM163.307 49.7114C163.307 50.4309 163.954 51.0784 164.673 51.0784H173.306C174.026 51.0784 174.673 50.4309 174.673 49.7114V11.2948H184.961C185.752 11.2948 186.328 10.6473 186.328 9.92786V2.0863C186.328 1.36686 185.752 0.719389 184.961 0.719389H153.019C152.228 0.719389 151.652 1.36686 151.652 2.0863V9.92786C151.652 10.6473 152.228 11.2948 153.019 11.2948H163.307V49.7114ZM106.545 51.0784H114.459C115.897 51.0784 116.689 50.2151 117.049 49.3518L119.638 43.5965H139.206L141.796 49.2798C142.444 50.6467 143.019 51.0784 144.314 51.0784H152.3C153.379 51.0784 153.954 50.1431 153.523 49.2079L131.005 0.791325C130.789 0.359679 130.286 0 129.782 0H129.063C128.559 0 128.056 0.359679 127.84 0.791325L105.322 49.2079C104.89 50.1431 105.466 51.0784 106.545 51.0784ZM123.955 33.8124L129.35 21.9421H129.422L134.89 33.8124H123.955ZM67.7687 49.7114C67.7687 50.4309 68.3442 51.0784 69.1356 51.0784H86.9771C95.5381 51.0784 102.66 45.2511 102.66 37.1937C102.66 30.5751 96.833 27.0499 93.0201 25.4672C96.4014 23.6687 101.365 19.64 101.365 14.1005C101.365 6.54667 94.387 0.719389 85.8979 0.719389H69.1356C68.3442 0.719389 67.7687 1.36686 67.7687 2.0863V49.7114ZM78.9916 21.1507V11.079H84.603C87.3368 11.079 89.6389 13.0933 89.6389 15.971C89.6389 18.8486 87.3368 21.1507 84.603 21.1507H78.9916ZM78.9916 40.7907V30.5031H84.8188C87.6245 30.5031 90.718 32.6614 90.718 35.539C90.718 38.4886 88.3439 40.7907 85.5382 40.7907H78.9916ZM44.0281 49.7114C44.0281 50.4309 44.6755 51.0784 45.395 51.0784H54.0279C54.7473 51.0784 55.3948 50.4309 55.3948 49.7114V2.0863C55.3948 1.36686 54.7473 0.719389 54.0279 0.719389H45.395C44.6755 0.719389 44.0281 1.36686 44.0281 2.0863V49.7114ZM0 49.7114C0 50.4309 0.575529 51.0784 1.36688 51.0784H19.2083C27.7694 51.0784 34.8916 45.2511 34.8916 37.1937C34.8916 30.5751 29.0643 27.0499 25.2514 25.4672C28.6327 23.6687 33.5966 19.64 33.5966 14.1005C33.5966 6.54667 26.6183 0.719389 18.1292 0.719389H1.36688C0.575529 0.719389 0 1.36686 0 2.0863V49.7114ZM11.2229 21.1507V11.079H16.8343C19.568 11.079 21.8702 13.0933 21.8702 15.971C21.8702 18.8486 19.568 21.1507 16.8343 21.1507H11.2229ZM11.2229 40.7907V30.5031H17.0501C19.8558 30.5031 22.9493 32.6614 22.9493 35.539C22.9493 38.4886 20.5752 40.7907 17.7695 40.7907H11.2229Z" fill="#333333"/>
</svg>
