<svg width="1600" height="766" viewBox="0 0 1600 766" fill="none" xmlns="http://www.w3.org/2000/svg">
<path d="M252.5 263.279C252.5 255.117 258.944 248.5 266.893 248.5H724.107C732.056 248.5 738.5 255.117 738.5 263.279V501.721C738.5 509.883 732.056 516.5 724.107 516.5H266.893C258.944 516.5 252.5 509.883 252.5 501.721V263.279Z" fill="url(#paint0_linear)"/>
<path d="M266.893 249H724.107C731.768 249 738 255.381 738 263.279V501.721C738 509.619 731.768 516 724.107 516H266.893C259.232 516 253 509.619 253 501.721V263.279C253 255.381 259.232 249 266.893 249Z" stroke="url(#paint1_linear)" stroke-opacity="0.4"/>
<path d="M873.5 263.279C873.5 255.117 879.944 248.5 887.893 248.5H1345.11C1353.06 248.5 1359.5 255.117 1359.5 263.279V501.721C1359.5 509.883 1353.06 516.5 1345.11 516.5H887.893C879.944 516.5 873.5 509.883 873.5 501.721V263.279Z" fill="url(#paint2_linear)"/>
<path d="M887.893 249H1345.11C1352.77 249 1359 255.381 1359 263.279V501.721C1359 509.619 1352.77 516 1345.11 516H887.893C880.232 516 874 509.619 874 501.721V263.279C874 255.381 880.232 249 887.893 249Z" stroke="url(#paint3_linear)" stroke-opacity="0.4"/>
<path d="M437.828 351.5C437.778 352.7 437.303 353.675 436.403 354.425C435.503 355.175 434.453 355.55 433.253 355.55H408.503C409.103 358.5 410.478 360.825 412.628 362.525C414.778 364.175 417.203 365 419.903 365C421.953 365 423.553 364.825 424.703 364.475C425.853 364.075 426.753 363.675 427.403 363.275C428.103 362.825 428.578 362.525 428.828 362.375C429.728 361.925 430.578 361.7 431.378 361.7C432.428 361.7 433.328 362.075 434.078 362.825C434.828 363.575 435.203 364.45 435.203 365.45C435.203 366.8 434.503 368.025 433.103 369.125C431.703 370.275 429.828 371.25 427.478 372.05C425.128 372.85 422.753 373.25 420.353 373.25C416.153 373.25 412.478 372.375 409.328 370.625C406.228 368.875 403.828 366.475 402.128 363.425C400.428 360.325 399.578 356.85 399.578 353C399.578 348.7 400.478 344.925 402.278 341.675C404.078 338.425 406.453 335.95 409.403 334.25C412.353 332.5 415.503 331.625 418.853 331.625C422.153 331.625 425.253 332.525 428.153 334.325C431.103 336.125 433.453 338.55 435.203 341.6C436.953 344.65 437.828 347.95 437.828 351.5ZM418.853 339.875C413.053 339.875 409.628 342.6 408.578 348.05H428.228V347.525C428.028 345.425 427.003 343.625 425.153 342.125C423.303 340.625 421.203 339.875 418.853 339.875ZM478.193 331.625C479.493 331.625 480.568 332.05 481.418 332.9C482.268 333.75 482.693 334.85 482.693 336.2V369.575C482.693 375.675 480.793 380.175 476.993 383.075C473.243 386.025 468.468 387.5 462.668 387.5C461.168 387.5 459.093 387.25 456.443 386.75C453.843 386.25 451.993 385.75 450.893 385.25C448.443 384.2 447.218 382.75 447.218 380.9C447.218 380.55 447.293 380.15 447.443 379.7C447.743 378.6 448.243 377.75 448.943 377.15C449.693 376.6 450.493 376.325 451.343 376.325C451.843 376.325 452.318 376.4 452.768 376.55C452.968 376.6 454.193 377.05 456.443 377.9C458.743 378.8 460.818 379.25 462.668 379.25C466.368 379.25 469.118 378.5 470.918 377C472.768 375.55 473.693 373.475 473.693 370.775V367.175C472.593 368.725 470.918 370.125 468.668 371.375C466.468 372.625 464.093 373.25 461.543 373.25C458.043 373.25 454.843 372.375 451.943 370.625C449.093 368.825 446.843 366.35 445.193 363.2C443.543 360.05 442.718 356.475 442.718 352.475C442.718 348.475 443.518 344.9 445.118 341.75C446.768 338.55 448.993 336.075 451.793 334.325C454.643 332.525 457.793 331.625 461.243 331.625C463.793 331.625 466.168 332.15 468.368 333.2C470.568 334.25 472.343 335.525 473.693 337.025V336.2C473.693 334.9 474.118 333.825 474.968 332.975C475.818 332.075 476.893 331.625 478.193 331.625ZM462.668 365C466.018 365 468.743 363.825 470.843 361.475C472.993 359.075 474.068 356.075 474.068 352.475C474.068 348.875 472.993 345.875 470.843 343.475C468.743 341.075 466.018 339.875 462.668 339.875C459.318 339.875 456.593 341.075 454.493 343.475C452.393 345.875 451.343 348.875 451.343 352.475C451.343 356.075 452.393 359.075 454.493 361.475C456.593 363.825 459.318 365 462.668 365ZM525.654 331.625C526.954 331.625 528.029 332.05 528.879 332.9C529.729 333.75 530.154 334.85 530.154 336.2V369.575C530.154 375.675 528.254 380.175 524.454 383.075C520.704 386.025 515.929 387.5 510.129 387.5C508.629 387.5 506.554 387.25 503.904 386.75C501.304 386.25 499.454 385.75 498.354 385.25C495.904 384.2 494.679 382.75 494.679 380.9C494.679 380.55 494.754 380.15 494.904 379.7C495.204 378.6 495.704 377.75 496.404 377.15C497.154 376.6 497.954 376.325 498.804 376.325C499.304 376.325 499.779 376.4 500.229 376.55C500.429 376.6 501.654 377.05 503.904 377.9C506.204 378.8 508.279 379.25 510.129 379.25C513.829 379.25 516.579 378.5 518.379 377C520.229 375.55 521.154 373.475 521.154 370.775V367.175C520.054 368.725 518.379 370.125 516.129 371.375C513.929 372.625 511.554 373.25 509.004 373.25C505.504 373.25 502.304 372.375 499.404 370.625C496.554 368.825 494.304 366.35 492.654 363.2C491.004 360.05 490.179 356.475 490.179 352.475C490.179 348.475 490.979 344.9 492.579 341.75C494.229 338.55 496.454 336.075 499.254 334.325C502.104 332.525 505.254 331.625 508.704 331.625C511.254 331.625 513.629 332.15 515.829 333.2C518.029 334.25 519.804 335.525 521.154 337.025V336.2C521.154 334.9 521.579 333.825 522.429 332.975C523.279 332.075 524.354 331.625 525.654 331.625ZM510.129 365C513.479 365 516.204 363.825 518.304 361.475C520.454 359.075 521.529 356.075 521.529 352.475C521.529 348.875 520.454 345.875 518.304 343.475C516.204 341.075 513.479 339.875 510.129 339.875C506.779 339.875 504.054 341.075 501.954 343.475C499.854 345.875 498.804 348.875 498.804 352.475C498.804 356.075 499.854 359.075 501.954 361.475C504.054 363.825 506.779 365 510.129 365ZM569.665 332.375C570.965 332.375 572.04 332.825 572.89 333.725C573.74 334.575 574.165 335.65 574.165 336.95V368.825C574.165 375.325 572.415 380.05 568.915 383C565.415 386 560.74 387.5 554.89 387.5C553.19 387.5 551.44 387.35 549.64 387.05C547.89 386.8 546.465 386.45 545.365 386C542.915 384.95 541.69 383.5 541.69 381.65C541.69 381.3 541.765 380.9 541.915 380.45C542.215 379.35 542.715 378.5 543.415 377.9C544.165 377.35 544.965 377.075 545.815 377.075C546.315 377.075 546.79 377.15 547.24 377.3C547.59 377.45 548.19 377.7 549.04 378.05C549.94 378.4 550.865 378.675 551.815 378.875C552.815 379.125 553.84 379.25 554.89 379.25C558.44 379.25 561.04 378.475 562.69 376.925C564.39 375.425 565.24 372.825 565.24 369.125V368.375C562.64 371.625 558.59 373.25 553.09 373.25C550.49 373.25 548.19 372.65 546.19 371.45C544.19 370.2 542.64 368.5 541.54 366.35C540.44 364.15 539.89 361.65 539.89 358.85V336.95C539.89 335.65 540.315 334.575 541.165 333.725C542.015 332.825 543.09 332.375 544.39 332.375C545.69 332.375 546.765 332.825 547.615 333.725C548.465 334.575 548.89 335.65 548.89 336.95V356.15C548.89 359.3 549.565 361.575 550.915 362.975C552.315 364.325 554.34 365 556.99 365C559.59 365 561.59 364.25 562.99 362.75C564.44 361.2 565.165 359 565.165 356.15V336.95C565.165 335.65 565.59 334.575 566.44 333.725C567.29 332.825 568.365 332.375 569.665 332.375ZM405.07 403.8C403.936 403.8 403.136 404.133 402.67 404.8C402.203 405.433 401.97 406.133 401.97 406.9V409.25H406.52C407.32 409.25 407.986 409.517 408.52 410.05C409.053 410.55 409.32 411.2 409.32 412C409.32 412.8 409.053 413.467 408.52 414C407.986 414.5 407.32 414.75 406.52 414.75H401.97V432.45C401.97 433.317 401.686 434.05 401.12 434.65C400.553 435.217 399.836 435.5 398.97 435.5C398.103 435.5 397.386 435.217 396.82 434.65C396.253 434.05 395.97 433.317 395.97 432.45V414.75H393.27C392.47 414.75 391.803 414.5 391.27 414C390.736 413.467 390.47 412.8 390.47 412C390.47 411.2 390.736 410.55 391.27 410.05C391.803 409.517 392.47 409.25 393.27 409.25H395.97V406.95C395.97 404.45 396.82 402.417 398.52 400.85C400.253 399.283 402.736 398.5 405.97 398.5C407.203 398.5 408.27 398.75 409.17 399.25C410.103 399.75 410.57 400.517 410.57 401.55C410.57 402.35 410.336 403 409.87 403.5C409.403 404 408.836 404.25 408.17 404.25C408.003 404.25 407.82 404.233 407.62 404.2C407.453 404.167 407.27 404.133 407.07 404.1C406.27 403.9 405.603 403.8 405.07 403.8ZM426.969 408.25C427.969 408.25 428.803 408.533 429.469 409.1C430.169 409.667 430.519 410.333 430.519 411.1C430.519 412.133 430.253 412.917 429.719 413.45C429.186 413.95 428.553 414.2 427.819 414.2C427.319 414.2 426.753 414.083 426.119 413.85C426.019 413.817 425.786 413.75 425.419 413.65C425.086 413.55 424.719 413.5 424.319 413.5C423.453 413.5 422.619 413.767 421.819 414.3C421.019 414.833 420.353 415.65 419.819 416.75C419.319 417.817 419.069 419.1 419.069 420.6V432.45C419.069 433.317 418.786 434.05 418.219 434.65C417.653 435.217 416.936 435.5 416.069 435.5C415.203 435.5 414.486 435.217 413.919 434.65C413.353 434.05 413.069 433.317 413.069 432.45V411.8C413.069 410.933 413.353 410.217 413.919 409.65C414.486 409.05 415.203 408.75 416.069 408.75C416.936 408.75 417.653 409.05 418.219 409.65C418.786 410.217 419.069 410.933 419.069 411.8V412.45C419.836 411.083 420.936 410.05 422.369 409.35C423.803 408.617 425.336 408.25 426.969 408.25ZM459.326 422.15C459.326 424.817 458.726 427.217 457.526 429.35C456.326 431.45 454.676 433.083 452.576 434.25C450.509 435.417 448.226 436 445.726 436C443.193 436 440.893 435.417 438.826 434.25C436.759 433.083 435.126 431.45 433.926 429.35C432.726 427.217 432.126 424.817 432.126 422.15C432.126 419.483 432.726 417.1 433.926 415C435.126 412.867 436.759 411.217 438.826 410.05C440.893 408.85 443.193 408.25 445.726 408.25C448.226 408.25 450.509 408.85 452.576 410.05C454.676 411.217 456.326 412.867 457.526 415C458.726 417.1 459.326 419.483 459.326 422.15ZM453.326 422.15C453.326 420.517 452.976 419.067 452.276 417.8C451.609 416.5 450.693 415.5 449.526 414.8C448.393 414.1 447.126 413.75 445.726 413.75C444.326 413.75 443.043 414.1 441.876 414.8C440.743 415.5 439.826 416.5 439.126 417.8C438.459 419.067 438.126 420.517 438.126 422.15C438.126 423.783 438.459 425.233 439.126 426.5C439.826 427.767 440.743 428.75 441.876 429.45C443.043 430.15 444.326 430.5 445.726 430.5C447.126 430.5 448.393 430.15 449.526 429.45C450.693 428.75 451.609 427.767 452.276 426.5C452.976 425.233 453.326 423.783 453.326 422.15ZM478.639 408.25C482.039 408.25 484.389 409.267 485.689 411.3C486.989 413.3 487.639 416.083 487.639 419.65V432.45C487.639 433.317 487.356 434.05 486.789 434.65C486.222 435.217 485.506 435.5 484.639 435.5C483.772 435.5 483.056 435.217 482.489 434.65C481.922 434.05 481.639 433.317 481.639 432.45V419.65C481.639 417.817 481.256 416.383 480.489 415.35C479.722 414.283 478.406 413.75 476.539 413.75C474.606 413.75 473.089 414.317 471.989 415.45C470.889 416.55 470.339 417.95 470.339 419.65V432.45C470.339 433.317 470.056 434.05 469.489 434.65C468.922 435.217 468.206 435.5 467.339 435.5C466.472 435.5 465.756 435.217 465.189 434.65C464.622 434.05 464.339 433.317 464.339 432.45V411.8C464.339 410.933 464.622 410.217 465.189 409.65C465.756 409.05 466.472 408.75 467.339 408.75C468.206 408.75 468.922 409.05 469.489 409.65C470.056 410.217 470.339 410.933 470.339 411.8V412.65C471.239 411.45 472.406 410.417 473.839 409.55C475.306 408.683 476.906 408.25 478.639 408.25ZM507.024 429.85C507.491 429.85 507.907 430.083 508.274 430.55C508.674 430.983 508.874 431.567 508.874 432.3C508.874 433.2 508.374 433.967 507.374 434.6C506.407 435.2 505.307 435.5 504.074 435.5C502.007 435.5 500.257 435.067 498.824 434.2C497.424 433.3 496.724 431.417 496.724 428.55V414.75H494.424C493.624 414.75 492.957 414.483 492.424 413.95C491.891 413.417 491.624 412.75 491.624 411.95C491.624 411.183 491.891 410.55 492.424 410.05C492.957 409.517 493.624 409.25 494.424 409.25H496.724V406.05C496.724 405.183 497.007 404.467 497.574 403.9C498.174 403.3 498.907 403 499.774 403C500.607 403 501.307 403.3 501.874 403.9C502.441 404.467 502.724 405.183 502.724 406.05V409.25H506.274C507.074 409.25 507.741 409.517 508.274 410.05C508.807 410.583 509.074 411.25 509.074 412.05C509.074 412.817 508.807 413.467 508.274 414C507.741 414.5 507.074 414.75 506.274 414.75H502.724V428.3C502.724 429 502.907 429.517 503.274 429.85C503.641 430.15 504.141 430.3 504.774 430.3C505.041 430.3 505.407 430.233 505.874 430.1C506.274 429.933 506.657 429.85 507.024 429.85ZM538.339 421.5C538.306 422.3 537.989 422.95 537.389 423.45C536.789 423.95 536.089 424.2 535.289 424.2H518.789C519.189 426.167 520.106 427.717 521.539 428.85C522.972 429.95 524.589 430.5 526.389 430.5C527.756 430.5 528.822 430.383 529.589 430.15C530.356 429.883 530.956 429.617 531.389 429.35C531.856 429.05 532.172 428.85 532.339 428.75C532.939 428.45 533.506 428.3 534.039 428.3C534.739 428.3 535.339 428.55 535.839 429.05C536.339 429.55 536.589 430.133 536.589 430.8C536.589 431.7 536.122 432.517 535.189 433.25C534.256 434.017 533.006 434.667 531.439 435.2C529.872 435.733 528.289 436 526.689 436C523.889 436 521.439 435.417 519.339 434.25C517.272 433.083 515.672 431.483 514.539 429.45C513.406 427.383 512.839 425.067 512.839 422.5C512.839 419.633 513.439 417.117 514.639 414.95C515.839 412.783 517.422 411.133 519.389 410C521.356 408.833 523.456 408.25 525.689 408.25C527.889 408.25 529.956 408.85 531.889 410.05C533.856 411.25 535.422 412.867 536.589 414.9C537.756 416.933 538.339 419.133 538.339 421.5ZM525.689 413.75C521.822 413.75 519.539 415.567 518.839 419.2H531.939V418.85C531.806 417.45 531.122 416.25 529.889 415.25C528.656 414.25 527.256 413.75 525.689 413.75ZM557.643 408.25C561.043 408.25 563.393 409.267 564.693 411.3C565.993 413.3 566.643 416.083 566.643 419.65V432.45C566.643 433.317 566.359 434.05 565.793 434.65C565.226 435.217 564.509 435.5 563.643 435.5C562.776 435.5 562.059 435.217 561.493 434.65C560.926 434.05 560.643 433.317 560.643 432.45V419.65C560.643 417.817 560.259 416.383 559.493 415.35C558.726 414.283 557.409 413.75 555.543 413.75C553.609 413.75 552.093 414.317 550.993 415.45C549.893 416.55 549.343 417.95 549.343 419.65V432.45C549.343 433.317 549.059 434.05 548.493 434.65C547.926 435.217 547.209 435.5 546.343 435.5C545.476 435.5 544.759 435.217 544.193 434.65C543.626 434.05 543.343 433.317 543.343 432.45V411.8C543.343 410.933 543.626 410.217 544.193 409.65C544.759 409.05 545.476 408.75 546.343 408.75C547.209 408.75 547.926 409.05 548.493 409.65C549.059 410.217 549.343 410.933 549.343 411.8V412.65C550.243 411.45 551.409 410.417 552.843 409.55C554.309 408.683 555.909 408.25 557.643 408.25ZM594.778 398.5C595.645 398.5 596.361 398.783 596.928 399.35C597.495 399.917 597.778 400.65 597.778 401.55V432.45C597.778 433.317 597.495 434.05 596.928 434.65C596.361 435.217 595.645 435.5 594.778 435.5C593.911 435.5 593.195 435.217 592.628 434.65C592.095 434.083 591.811 433.367 591.778 432.5C590.945 433.467 589.811 434.3 588.378 435C586.978 435.667 585.495 436 583.928 436C581.628 436 579.545 435.417 577.678 434.25C575.811 433.05 574.328 431.4 573.228 429.3C572.161 427.2 571.628 424.817 571.628 422.15C571.628 419.483 572.161 417.1 573.228 415C574.295 412.867 575.745 411.217 577.578 410.05C579.445 408.85 581.495 408.25 583.728 408.25C585.328 408.25 586.828 408.55 588.228 409.15C589.628 409.717 590.811 410.45 591.778 411.35V401.55C591.778 400.683 592.061 399.967 592.628 399.4C593.195 398.8 593.911 398.5 594.778 398.5ZM584.678 430.5C586.845 430.5 588.611 429.717 589.978 428.15C591.345 426.55 592.028 424.55 592.028 422.15C592.028 419.75 591.345 417.75 589.978 416.15C588.611 414.55 586.845 413.75 584.678 413.75C582.545 413.75 580.795 414.55 579.428 416.15C578.061 417.75 577.378 419.75 577.378 422.15C577.378 424.55 578.045 426.55 579.378 428.15C580.745 429.717 582.511 430.5 584.678 430.5Z" fill="white"/>
<path d="M895.24 110.935C891.632 110.935 888.031 111.294 884.495 112.01C881.829 98.6973 873.208 87.3411 861.105 81.1943C849.005 75.0476 834.753 74.7898 822.436 80.4932C811.289 49.7762 777.361 33.9166 746.657 45.068C715.952 56.2194 700.099 90.1627 711.246 120.877C684.349 121.728 663.103 143.999 663.506 170.916C663.91 197.836 685.816 219.457 712.727 219.5H895.24C925.205 219.5 949.5 195.197 949.5 165.218C949.5 135.238 925.205 110.935 895.24 110.935V110.935Z" fill="url(#paint4_linear)"/>
<path d="M884.006 112.108L884.104 112.598L884.594 112.499C888.097 111.79 891.665 111.434 895.24 111.434C924.929 111.434 949.001 135.514 949.001 165.218C949.001 194.922 924.929 219.001 895.24 219.001H712.728C686.09 218.958 664.405 197.556 664.005 170.909C663.606 144.264 684.638 122.218 711.262 121.376L711.95 121.354L711.715 120.707C700.662 90.2513 716.382 56.5944 746.827 45.5371C777.273 34.4799 810.913 50.2055 821.966 80.6634L822.152 81.1745L822.645 80.9461C834.824 75.3069 848.915 75.5618 860.879 81.6393L861.105 81.1943L860.879 81.6393C872.846 87.7169 881.369 98.9452 884.006 112.108Z" stroke="url(#paint5_linear)" stroke-opacity="0.4" stroke-width="0.998201"/>
<path d="M769.035 136.075C772.718 136.075 775.686 136.66 777.94 137.83C780.193 138.957 781.32 140.473 781.32 142.38C781.32 143.333 781.038 144.178 780.475 144.915C779.911 145.608 779.175 145.955 778.265 145.955C777.571 145.955 777.008 145.868 776.575 145.695C776.141 145.478 775.708 145.218 775.275 144.915C774.885 144.568 774.495 144.287 774.105 144.07C773.671 143.853 773.021 143.658 772.155 143.485C771.331 143.312 770.66 143.225 770.14 143.225C766.89 143.225 764.333 144.243 762.47 146.28C760.65 148.273 759.74 150.895 759.74 154.145C759.74 157.265 760.671 159.865 762.535 161.945C764.398 163.982 766.781 165 769.685 165C771.808 165 773.39 164.74 774.43 164.22C774.69 164.09 775.036 163.873 775.47 163.57C775.946 163.223 776.38 162.963 776.77 162.79C777.16 162.617 777.636 162.53 778.2 162.53C779.283 162.53 780.128 162.877 780.735 163.57C781.385 164.263 781.71 165.152 781.71 166.235C781.71 167.275 781.103 168.25 779.89 169.16C778.676 170.07 777.073 170.807 775.08 171.37C773.086 171.89 770.963 172.15 768.71 172.15C765.373 172.15 762.426 171.37 759.87 169.81C757.356 168.25 755.406 166.105 754.02 163.375C752.633 160.602 751.94 157.525 751.94 154.145C751.94 150.635 752.655 147.515 754.085 144.785C755.558 142.055 757.595 139.932 760.195 138.415C762.795 136.855 765.741 136.075 769.035 136.075ZM815.487 123.4C816.613 123.4 817.545 123.768 818.282 124.505C819.018 125.242 819.387 126.195 819.387 127.365V167.535C819.387 168.662 819.018 169.615 818.282 170.395C817.545 171.132 816.613 171.5 815.487 171.5C814.36 171.5 813.428 171.132 812.692 170.395C811.998 169.658 811.63 168.727 811.587 167.6C810.503 168.857 809.03 169.94 807.167 170.85C805.347 171.717 803.418 172.15 801.382 172.15C798.392 172.15 795.683 171.392 793.257 169.875C790.83 168.315 788.902 166.17 787.472 163.44C786.085 160.71 785.392 157.612 785.392 154.145C785.392 150.678 786.085 147.58 787.472 144.85C788.858 142.077 790.743 139.932 793.127 138.415C795.553 136.855 798.218 136.075 801.122 136.075C803.202 136.075 805.152 136.465 806.972 137.245C808.792 137.982 810.33 138.935 811.587 140.105V127.365C811.587 126.238 811.955 125.307 812.692 124.57C813.428 123.79 814.36 123.4 815.487 123.4ZM802.357 165C805.173 165 807.47 163.982 809.247 161.945C811.023 159.865 811.912 157.265 811.912 154.145C811.912 151.025 811.023 148.425 809.247 146.345C807.47 144.265 805.173 143.225 802.357 143.225C799.583 143.225 797.308 144.265 795.532 146.345C793.755 148.425 792.867 151.025 792.867 154.145C792.867 157.265 793.733 159.865 795.467 161.945C797.243 163.982 799.54 165 802.357 165ZM846.43 136.075C850.85 136.075 853.905 137.397 855.595 140.04C857.285 142.64 858.13 146.258 858.13 150.895V167.535C858.13 168.662 857.761 169.615 857.025 170.395C856.288 171.132 855.356 171.5 854.23 171.5C853.103 171.5 852.171 171.132 851.435 170.395C850.698 169.615 850.33 168.662 850.33 167.535V150.895C850.33 148.512 849.831 146.648 848.835 145.305C847.838 143.918 846.126 143.225 843.7 143.225C841.186 143.225 839.215 143.962 837.785 145.435C836.355 146.865 835.64 148.685 835.64 150.895V167.535C835.64 168.662 835.271 169.615 834.535 170.395C833.798 171.132 832.866 171.5 831.74 171.5C830.613 171.5 829.681 171.132 828.945 170.395C828.208 169.615 827.84 168.662 827.84 167.535V140.69C827.84 139.563 828.208 138.632 828.945 137.895C829.681 137.115 830.613 136.725 831.74 136.725C832.866 136.725 833.798 137.115 834.535 137.895C835.271 138.632 835.64 139.563 835.64 140.69V141.795C836.81 140.235 838.326 138.892 840.19 137.765C842.096 136.638 844.176 136.075 846.43 136.075Z" fill="white"/>
<path d="M1058.33 350.5C1058.28 351.7 1057.8 352.675 1056.9 353.425C1056 354.175 1054.95 354.55 1053.75 354.55H1029C1029.6 357.5 1030.98 359.825 1033.13 361.525C1035.28 363.175 1037.7 364 1040.4 364C1042.45 364 1044.05 363.825 1045.2 363.475C1046.35 363.075 1047.25 362.675 1047.9 362.275C1048.6 361.825 1049.08 361.525 1049.33 361.375C1050.23 360.925 1051.08 360.7 1051.88 360.7C1052.93 360.7 1053.83 361.075 1054.58 361.825C1055.33 362.575 1055.7 363.45 1055.7 364.45C1055.7 365.8 1055 367.025 1053.6 368.125C1052.2 369.275 1050.33 370.25 1047.98 371.05C1045.63 371.85 1043.25 372.25 1040.85 372.25C1036.65 372.25 1032.98 371.375 1029.83 369.625C1026.73 367.875 1024.33 365.475 1022.63 362.425C1020.93 359.325 1020.08 355.85 1020.08 352C1020.08 347.7 1020.98 343.925 1022.78 340.675C1024.58 337.425 1026.95 334.95 1029.9 333.25C1032.85 331.5 1036 330.625 1039.35 330.625C1042.65 330.625 1045.75 331.525 1048.65 333.325C1051.6 335.125 1053.95 337.55 1055.7 340.6C1057.45 343.65 1058.33 346.95 1058.33 350.5ZM1039.35 338.875C1033.55 338.875 1030.13 341.6 1029.08 347.05H1048.73V346.525C1048.53 344.425 1047.5 342.625 1045.65 341.125C1043.8 339.625 1041.7 338.875 1039.35 338.875ZM1098.69 330.625C1099.99 330.625 1101.07 331.05 1101.92 331.9C1102.77 332.75 1103.19 333.85 1103.19 335.2V368.575C1103.19 374.675 1101.29 379.175 1097.49 382.075C1093.74 385.025 1088.97 386.5 1083.17 386.5C1081.67 386.5 1079.59 386.25 1076.94 385.75C1074.34 385.25 1072.49 384.75 1071.39 384.25C1068.94 383.2 1067.72 381.75 1067.72 379.9C1067.72 379.55 1067.79 379.15 1067.94 378.7C1068.24 377.6 1068.74 376.75 1069.44 376.15C1070.19 375.6 1070.99 375.325 1071.84 375.325C1072.34 375.325 1072.82 375.4 1073.27 375.55C1073.47 375.6 1074.69 376.05 1076.94 376.9C1079.24 377.8 1081.32 378.25 1083.17 378.25C1086.87 378.25 1089.62 377.5 1091.42 376C1093.27 374.55 1094.19 372.475 1094.19 369.775V366.175C1093.09 367.725 1091.42 369.125 1089.17 370.375C1086.97 371.625 1084.59 372.25 1082.04 372.25C1078.54 372.25 1075.34 371.375 1072.44 369.625C1069.59 367.825 1067.34 365.35 1065.69 362.2C1064.04 359.05 1063.22 355.475 1063.22 351.475C1063.22 347.475 1064.02 343.9 1065.62 340.75C1067.27 337.55 1069.49 335.075 1072.29 333.325C1075.14 331.525 1078.29 330.625 1081.74 330.625C1084.29 330.625 1086.67 331.15 1088.87 332.2C1091.07 333.25 1092.84 334.525 1094.19 336.025V335.2C1094.19 333.9 1094.62 332.825 1095.47 331.975C1096.32 331.075 1097.39 330.625 1098.69 330.625ZM1083.17 364C1086.52 364 1089.24 362.825 1091.34 360.475C1093.49 358.075 1094.57 355.075 1094.57 351.475C1094.57 347.875 1093.49 344.875 1091.34 342.475C1089.24 340.075 1086.52 338.875 1083.17 338.875C1079.82 338.875 1077.09 340.075 1074.99 342.475C1072.89 344.875 1071.84 347.875 1071.84 351.475C1071.84 355.075 1072.89 358.075 1074.99 360.475C1077.09 362.825 1079.82 364 1083.17 364ZM1146.15 330.625C1147.45 330.625 1148.53 331.05 1149.38 331.9C1150.23 332.75 1150.65 333.85 1150.65 335.2V368.575C1150.65 374.675 1148.75 379.175 1144.95 382.075C1141.2 385.025 1136.43 386.5 1130.63 386.5C1129.13 386.5 1127.05 386.25 1124.4 385.75C1121.8 385.25 1119.95 384.75 1118.85 384.25C1116.4 383.2 1115.18 381.75 1115.18 379.9C1115.18 379.55 1115.25 379.15 1115.4 378.7C1115.7 377.6 1116.2 376.75 1116.9 376.15C1117.65 375.6 1118.45 375.325 1119.3 375.325C1119.8 375.325 1120.28 375.4 1120.73 375.55C1120.93 375.6 1122.15 376.05 1124.4 376.9C1126.7 377.8 1128.78 378.25 1130.63 378.25C1134.33 378.25 1137.08 377.5 1138.88 376C1140.73 374.55 1141.65 372.475 1141.65 369.775V366.175C1140.55 367.725 1138.88 369.125 1136.63 370.375C1134.43 371.625 1132.05 372.25 1129.5 372.25C1126 372.25 1122.8 371.375 1119.9 369.625C1117.05 367.825 1114.8 365.35 1113.15 362.2C1111.5 359.05 1110.68 355.475 1110.68 351.475C1110.68 347.475 1111.48 343.9 1113.08 340.75C1114.73 337.55 1116.95 335.075 1119.75 333.325C1122.6 331.525 1125.75 330.625 1129.2 330.625C1131.75 330.625 1134.13 331.15 1136.33 332.2C1138.53 333.25 1140.3 334.525 1141.65 336.025V335.2C1141.65 333.9 1142.08 332.825 1142.93 331.975C1143.78 331.075 1144.85 330.625 1146.15 330.625ZM1130.63 364C1133.98 364 1136.7 362.825 1138.8 360.475C1140.95 358.075 1142.03 355.075 1142.03 351.475C1142.03 347.875 1140.95 344.875 1138.8 342.475C1136.7 340.075 1133.98 338.875 1130.63 338.875C1127.28 338.875 1124.55 340.075 1122.45 342.475C1120.35 344.875 1119.3 347.875 1119.3 351.475C1119.3 355.075 1120.35 358.075 1122.45 360.475C1124.55 362.825 1127.28 364 1130.63 364ZM1190.16 331.375C1191.46 331.375 1192.54 331.825 1193.39 332.725C1194.24 333.575 1194.66 334.65 1194.66 335.95V367.825C1194.66 374.325 1192.91 379.05 1189.41 382C1185.91 385 1181.24 386.5 1175.39 386.5C1173.69 386.5 1171.94 386.35 1170.14 386.05C1168.39 385.8 1166.96 385.45 1165.86 385C1163.41 383.95 1162.19 382.5 1162.19 380.65C1162.19 380.3 1162.26 379.9 1162.41 379.45C1162.71 378.35 1163.21 377.5 1163.91 376.9C1164.66 376.35 1165.46 376.075 1166.31 376.075C1166.81 376.075 1167.29 376.15 1167.74 376.3C1168.09 376.45 1168.69 376.7 1169.54 377.05C1170.44 377.4 1171.36 377.675 1172.31 377.875C1173.31 378.125 1174.34 378.25 1175.39 378.25C1178.94 378.25 1181.54 377.475 1183.19 375.925C1184.89 374.425 1185.74 371.825 1185.74 368.125V367.375C1183.14 370.625 1179.09 372.25 1173.59 372.25C1170.99 372.25 1168.69 371.65 1166.69 370.45C1164.69 369.2 1163.14 367.5 1162.04 365.35C1160.94 363.15 1160.39 360.65 1160.39 357.85V335.95C1160.39 334.65 1160.81 333.575 1161.66 332.725C1162.51 331.825 1163.59 331.375 1164.89 331.375C1166.19 331.375 1167.26 331.825 1168.11 332.725C1168.96 333.575 1169.39 334.65 1169.39 335.95V355.15C1169.39 358.3 1170.06 360.575 1171.41 361.975C1172.81 363.325 1174.84 364 1177.49 364C1180.09 364 1182.09 363.25 1183.49 361.75C1184.94 360.2 1185.66 358 1185.66 355.15V335.95C1185.66 334.65 1186.09 333.575 1186.94 332.725C1187.79 331.825 1188.86 331.375 1190.16 331.375ZM1018.43 407.25C1019.29 407.25 1020.01 407.533 1020.58 408.1C1021.14 408.667 1021.43 409.4 1021.43 410.3V431.45C1021.43 432.317 1021.14 433.05 1020.58 433.65C1020.01 434.217 1019.29 434.5 1018.43 434.5C1017.56 434.5 1016.84 434.217 1016.28 433.65C1015.74 433.083 1015.46 432.367 1015.43 431.5C1014.59 432.467 1013.46 433.3 1012.03 434C1010.63 434.667 1009.14 435 1007.58 435C1005.28 435 1003.19 434.417 1001.33 433.25C999.461 432.05 997.977 430.4 996.877 428.3C995.811 426.2 995.277 423.817 995.277 421.15C995.277 418.483 995.811 416.1 996.877 414C997.944 411.867 999.394 410.217 1001.23 409.05C1003.09 407.85 1005.14 407.25 1007.38 407.25C1008.98 407.25 1010.48 407.55 1011.88 408.15C1013.28 408.717 1014.46 409.45 1015.43 410.35V410.3C1015.43 409.433 1015.71 408.717 1016.28 408.15C1016.84 407.55 1017.56 407.25 1018.43 407.25ZM1008.33 429.5C1010.49 429.5 1012.26 428.717 1013.63 427.15C1014.99 425.55 1015.68 423.55 1015.68 421.15C1015.68 418.75 1014.99 416.75 1013.63 415.15C1012.26 413.55 1010.49 412.75 1008.33 412.75C1006.19 412.75 1004.44 413.55 1003.08 415.15C1001.71 416.75 1001.03 418.75 1001.03 421.15C1001.03 423.55 1001.69 425.55 1003.03 427.15C1004.39 428.717 1006.16 429.5 1008.33 429.5ZM1041.78 407.25C1044.08 407.25 1046.16 407.85 1048.03 409.05C1049.9 410.217 1051.36 411.85 1052.43 413.95C1053.53 416.05 1054.08 418.433 1054.08 421.1C1054.08 423.767 1053.55 426.167 1052.48 428.3C1051.41 430.4 1049.95 432.05 1048.08 433.25C1046.25 434.417 1044.21 435 1041.98 435C1040.38 435 1038.86 434.683 1037.43 434.05C1036.03 433.383 1034.86 432.583 1033.93 431.65V441.45C1033.93 442.317 1033.65 443.033 1033.08 443.6C1032.51 444.2 1031.8 444.5 1030.93 444.5C1030.06 444.5 1029.35 444.217 1028.78 443.65C1028.21 443.083 1027.93 442.35 1027.93 441.45V410.8C1027.93 409.933 1028.21 409.217 1028.78 408.65C1029.35 408.05 1030.06 407.75 1030.93 407.75C1031.8 407.75 1032.51 408.05 1033.08 408.65C1033.65 409.217 1033.93 409.933 1033.93 410.8V411C1034.73 410 1035.85 409.133 1037.28 408.4C1038.71 407.633 1040.21 407.25 1041.78 407.25ZM1041.03 429.5C1043.16 429.5 1044.91 428.7 1046.28 427.1C1047.65 425.5 1048.33 423.5 1048.33 421.1C1048.33 418.7 1047.65 416.717 1046.28 415.15C1044.95 413.55 1043.2 412.75 1041.03 412.75C1038.86 412.75 1037.1 413.55 1035.73 415.15C1034.36 416.717 1033.68 418.7 1033.68 421.1C1033.68 423.5 1034.36 425.5 1035.73 427.1C1037.1 428.7 1038.86 429.5 1041.03 429.5ZM1064.73 431.45C1064.73 432.317 1064.45 433.05 1063.88 433.65C1063.32 434.217 1062.6 434.5 1061.73 434.5C1060.87 434.5 1060.15 434.217 1059.58 433.65C1059.02 433.05 1058.73 432.317 1058.73 431.45V410.8C1058.73 409.933 1059.02 409.217 1059.58 408.65C1060.15 408.05 1060.87 407.75 1061.73 407.75C1062.6 407.75 1063.32 408.05 1063.88 408.65C1064.45 409.217 1064.73 409.933 1064.73 410.8V431.45ZM1061.68 404.5C1060.55 404.5 1059.75 404.317 1059.28 403.95C1058.82 403.583 1058.58 402.933 1058.58 402V401.05C1058.58 400.117 1058.83 399.467 1059.33 399.1C1059.83 398.733 1060.63 398.55 1061.73 398.55C1062.9 398.55 1063.72 398.733 1064.18 399.1C1064.65 399.467 1064.88 400.117 1064.88 401.05V402C1064.88 402.967 1064.63 403.633 1064.13 404C1063.67 404.333 1062.85 404.5 1061.68 404.5ZM1083.36 430.35C1083.06 429.95 1082.91 429.45 1082.91 428.85C1082.91 427.983 1083.35 427.25 1084.21 426.65C1084.68 426.35 1085.16 426.2 1085.66 426.2C1086.36 426.2 1087.03 426.517 1087.66 427.15C1088.66 428.183 1089.7 428.95 1090.76 429.45C1091.86 429.95 1093.18 430.2 1094.71 430.2C1097.31 430.1 1098.61 429.117 1098.61 427.25C1098.61 426.283 1098.16 425.55 1097.26 425.05C1096.4 424.55 1095.03 424.05 1093.16 423.55C1091.23 423.017 1089.65 422.483 1088.41 421.95C1087.21 421.417 1086.16 420.617 1085.26 419.55C1084.4 418.45 1083.96 416.983 1083.96 415.15C1083.96 413.55 1084.41 412.167 1085.31 411C1086.25 409.8 1087.45 408.883 1088.91 408.25C1090.41 407.583 1092 407.25 1093.66 407.25C1095.36 407.25 1097.06 407.567 1098.76 408.2C1100.46 408.833 1101.8 409.767 1102.76 411C1103.2 411.533 1103.41 412.133 1103.41 412.8C1103.41 413.567 1103.1 414.2 1102.46 414.7C1102 415.067 1101.46 415.25 1100.86 415.25C1100.13 415.25 1099.53 415.017 1099.06 414.55C1098.46 413.817 1097.68 413.233 1096.71 412.8C1095.78 412.367 1094.71 412.15 1093.51 412.15C1090.98 412.15 1089.71 413.067 1089.71 414.9C1089.71 415.633 1089.95 416.233 1090.41 416.7C1090.88 417.133 1091.46 417.483 1092.16 417.75C1092.9 417.983 1093.91 418.283 1095.21 418.65C1097.01 419.15 1098.51 419.667 1099.71 420.2C1100.91 420.733 1101.93 421.55 1102.76 422.65C1103.6 423.75 1104.01 425.2 1104.01 427C1104.01 428.633 1103.53 430.067 1102.56 431.3C1101.6 432.5 1100.35 433.417 1098.81 434.05C1097.31 434.683 1095.76 435 1094.16 435C1091.96 435 1089.91 434.633 1088.01 433.9C1086.11 433.167 1084.56 431.983 1083.36 430.35ZM1133.03 420.5C1133 421.3 1132.68 421.95 1132.08 422.45C1131.48 422.95 1130.78 423.2 1129.98 423.2H1113.48C1113.88 425.167 1114.8 426.717 1116.23 427.85C1117.67 428.95 1119.28 429.5 1121.08 429.5C1122.45 429.5 1123.52 429.383 1124.28 429.15C1125.05 428.883 1125.65 428.617 1126.08 428.35C1126.55 428.05 1126.87 427.85 1127.03 427.75C1127.63 427.45 1128.2 427.3 1128.73 427.3C1129.43 427.3 1130.03 427.55 1130.53 428.05C1131.03 428.55 1131.28 429.133 1131.28 429.8C1131.28 430.7 1130.82 431.517 1129.88 432.25C1128.95 433.017 1127.7 433.667 1126.13 434.2C1124.57 434.733 1122.98 435 1121.38 435C1118.58 435 1116.13 434.417 1114.03 433.25C1111.97 432.083 1110.37 430.483 1109.23 428.45C1108.1 426.383 1107.53 424.067 1107.53 421.5C1107.53 418.633 1108.13 416.117 1109.33 413.95C1110.53 411.783 1112.12 410.133 1114.08 409C1116.05 407.833 1118.15 407.25 1120.38 407.25C1122.58 407.25 1124.65 407.85 1126.58 409.05C1128.55 410.25 1130.12 411.867 1131.28 413.9C1132.45 415.933 1133.03 418.133 1133.03 420.5ZM1120.38 412.75C1116.52 412.75 1114.23 414.567 1113.53 418.2H1126.63V417.85C1126.5 416.45 1125.82 415.25 1124.58 414.25C1123.35 413.25 1121.95 412.75 1120.38 412.75ZM1151.94 407.25C1152.94 407.25 1153.77 407.533 1154.44 408.1C1155.14 408.667 1155.49 409.333 1155.49 410.1C1155.49 411.133 1155.22 411.917 1154.69 412.45C1154.15 412.95 1153.52 413.2 1152.79 413.2C1152.29 413.2 1151.72 413.083 1151.09 412.85C1150.99 412.817 1150.75 412.75 1150.39 412.65C1150.05 412.55 1149.69 412.5 1149.29 412.5C1148.42 412.5 1147.59 412.767 1146.79 413.3C1145.99 413.833 1145.32 414.65 1144.79 415.75C1144.29 416.817 1144.04 418.1 1144.04 419.6V431.45C1144.04 432.317 1143.75 433.05 1143.19 433.65C1142.62 434.217 1141.9 434.5 1141.04 434.5C1140.17 434.5 1139.45 434.217 1138.89 433.65C1138.32 433.05 1138.04 432.317 1138.04 431.45V410.8C1138.04 409.933 1138.32 409.217 1138.89 408.65C1139.45 408.05 1140.17 407.75 1141.04 407.75C1141.9 407.75 1142.62 408.05 1143.19 408.65C1143.75 409.217 1144.04 409.933 1144.04 410.8V411.45C1144.8 410.083 1145.9 409.05 1147.34 408.35C1148.77 407.617 1150.3 407.25 1151.94 407.25ZM1182.76 407.8C1183.56 407.8 1184.22 408.067 1184.76 408.6C1185.29 409.1 1185.56 409.733 1185.56 410.5C1185.56 410.9 1185.42 411.4 1185.16 412L1175.81 432.6C1175.57 433.167 1175.22 433.617 1174.76 433.95C1174.32 434.283 1173.82 434.467 1173.26 434.5L1172.81 434.55C1172.24 434.55 1171.71 434.383 1171.21 434.05C1170.74 433.683 1170.37 433.2 1170.11 432.6L1160.81 412C1160.57 411.467 1160.46 410.933 1160.46 410.4C1160.46 409.733 1160.74 409.133 1161.31 408.6C1161.87 408.033 1162.57 407.75 1163.41 407.75C1164.04 407.75 1164.62 407.917 1165.16 408.25C1165.69 408.583 1166.09 409.05 1166.36 409.65L1173.26 425.45L1180.11 409.7C1180.37 409.067 1180.74 408.583 1181.21 408.25C1181.67 407.917 1182.19 407.767 1182.76 407.8ZM1214.04 420.5C1214.01 421.3 1213.69 421.95 1213.09 422.45C1212.49 422.95 1211.79 423.2 1210.99 423.2H1194.49C1194.89 425.167 1195.81 426.717 1197.24 427.85C1198.67 428.95 1200.29 429.5 1202.09 429.5C1203.46 429.5 1204.52 429.383 1205.29 429.15C1206.06 428.883 1206.66 428.617 1207.09 428.35C1207.56 428.05 1207.87 427.85 1208.04 427.75C1208.64 427.45 1209.21 427.3 1209.74 427.3C1210.44 427.3 1211.04 427.55 1211.54 428.05C1212.04 428.55 1212.29 429.133 1212.29 429.8C1212.29 430.7 1211.82 431.517 1210.89 432.25C1209.96 433.017 1208.71 433.667 1207.14 434.2C1205.57 434.733 1203.99 435 1202.39 435C1199.59 435 1197.14 434.417 1195.04 433.25C1192.97 432.083 1191.37 430.483 1190.24 428.45C1189.11 426.383 1188.54 424.067 1188.54 421.5C1188.54 418.633 1189.14 416.117 1190.34 413.95C1191.54 411.783 1193.12 410.133 1195.09 409C1197.06 407.833 1199.16 407.25 1201.39 407.25C1203.59 407.25 1205.66 407.85 1207.59 409.05C1209.56 410.25 1211.12 411.867 1212.29 413.9C1213.46 415.933 1214.04 418.133 1214.04 420.5ZM1201.39 412.75C1197.52 412.75 1195.24 414.567 1194.54 418.2H1207.64V417.85C1207.51 416.45 1206.82 415.25 1205.59 414.25C1204.36 413.25 1202.96 412.75 1201.39 412.75ZM1232.94 407.25C1233.94 407.25 1234.78 407.533 1235.44 408.1C1236.14 408.667 1236.49 409.333 1236.49 410.1C1236.49 411.133 1236.23 411.917 1235.69 412.45C1235.16 412.95 1234.53 413.2 1233.79 413.2C1233.29 413.2 1232.73 413.083 1232.09 412.85C1231.99 412.817 1231.76 412.75 1231.39 412.65C1231.06 412.55 1230.69 412.5 1230.29 412.5C1229.43 412.5 1228.59 412.767 1227.79 413.3C1226.99 413.833 1226.33 414.65 1225.79 415.75C1225.29 416.817 1225.04 418.1 1225.04 419.6V431.45C1225.04 432.317 1224.76 433.05 1224.19 433.65C1223.63 434.217 1222.91 434.5 1222.04 434.5C1221.18 434.5 1220.46 434.217 1219.89 433.65C1219.33 433.05 1219.04 432.317 1219.04 431.45V410.8C1219.04 409.933 1219.33 409.217 1219.89 408.65C1220.46 408.05 1221.18 407.75 1222.04 407.75C1222.91 407.75 1223.63 408.05 1224.19 408.65C1224.76 409.217 1225.04 409.933 1225.04 410.8V411.45C1225.81 410.083 1226.91 409.05 1228.34 408.35C1229.78 407.617 1231.31 407.25 1232.94 407.25Z" fill="#B49AFF"/>
<path d="M188.5 11.6546V155.734C188.5 161.895 194.622 166.889 202.173 166.889H304.722C312.273 166.889 318.395 161.895 318.395 155.734V11.6546C318.395 5.49406 312.273 0.5 304.722 0.5H202.173C194.622 0.5 188.5 5.49406 188.5 11.6546Z" fill="url(#paint6_linear)"/>
<path d="M188.785 11.6546V155.734C188.785 161.766 194.779 166.656 202.173 166.656H304.722C312.116 166.656 318.11 161.766 318.11 155.734V11.6546C318.11 5.62242 312.116 0.732407 304.722 0.732407H202.173C194.779 0.732407 188.785 5.62242 188.785 11.6546Z" stroke="url(#paint7_linear)" stroke-opacity="0.4"/>
<path d="M252.238 30.5648C251.497 30.9003 250.763 31.2495 250.036 31.6122C254.248 37.7612 256.768 45.1631 256.9 53.1673C257.045 62.8523 253.611 72.2536 247.253 79.5728C242.866 84.2386 243.746 83.4737 238.985 87.9285C230.889 95.8165 223.902 105.777 223.89 117.682C223.89 122.408 224.746 126.948 226.288 131.162C230.693 133.055 235.293 134.462 240.004 135.359C237.325 130.041 235.805 124.039 235.805 117.682C235.827 108.343 239.168 99.3235 245.229 92.2176C246.456 90.4117 256.921 80.4423 256.921 80.4423C266.115 72.8167 269.002 65.2014 268.815 53.2734C268.723 47.8337 267.515 42.6585 265.422 37.9586C261.327 34.9968 256.903 32.5158 252.238 30.5648ZM245.229 34.0357C242.536 35.5326 239.953 37.2164 237.496 39.0745C238.238 41.987 238.666 45.0272 238.718 48.1628C238.863 57.8476 235.429 67.2457 229.071 74.5649C224.684 79.2306 225.56 78.4657 220.799 82.9206C217.381 86.2509 214.169 89.9584 211.588 94.0182C211.971 102.582 214.03 110.989 217.65 118.764C217.65 118.403 217.622 118.045 217.622 117.682C217.644 108.343 220.983 99.3235 227.043 92.2176C228.27 90.4117 238.735 80.4423 238.735 80.4423C247.929 72.8165 250.816 65.1979 250.629 53.27C250.511 46.2716 248.559 39.7054 245.229 34.0357ZM232.09 43.6443C220.842 54.2693 213.708 68.5112 211.945 83.8654C215.442 80.3133 220.556 75.4378 220.556 75.4378C229.75 67.812 232.637 60.1968 232.45 48.2689C232.421 46.7036 232.293 45.1611 232.09 43.6443ZM274.191 45.4517C274.731 47.9431 275.038 50.5217 275.083 53.1673C275.227 62.8523 271.795 72.2536 265.436 79.5728C261.049 84.2386 261.926 83.4737 257.165 87.9285C249.069 95.8165 242.088 105.777 242.076 117.682C242.076 124.387 243.782 130.719 246.77 136.269C248.574 136.458 250.386 136.572 252.2 136.611C254.356 136.604 256.509 136.491 258.653 136.273C255.679 130.734 253.988 124.405 253.988 117.682C254.009 108.343 257.352 99.3235 263.412 92.2176C264.639 90.4117 275.104 80.4423 275.104 80.4423C281.606 75.0492 284.94 69.6507 286.277 62.7382C283.207 56.3644 279.126 50.5272 274.191 45.4517ZM289.502 70.553C287.975 73.7879 286.003 76.8282 283.619 79.5728C279.232 84.2386 280.108 83.4737 275.347 87.9285C267.251 95.8165 260.268 105.777 260.256 117.682C260.256 124.034 261.783 130.054 264.482 135.389C268.073 134.682 271.598 133.676 275.021 132.384C273.19 127.84 272.17 122.88 272.17 117.682C272.192 108.343 275.535 99.3235 281.595 92.2176C282.606 90.7288 289.583 83.9951 292.11 81.5719C291.56 77.8309 290.688 74.1443 289.502 70.553ZM292.813 88.6474C285.029 96.4198 278.45 106.133 278.438 117.682C278.438 121.876 279.116 125.921 280.342 129.724C288.499 118.545 292.913 105.083 292.954 91.2558C292.924 90.3855 292.877 89.5158 292.813 88.6474ZM217.65 118.767V118.805C217.676 118.854 217.702 118.903 217.729 118.952C217.702 118.89 217.676 118.829 217.65 118.767ZM241.222 135.537C243.063 135.867 244.917 136.12 246.78 136.293C246.78 136.293 246.777 136.269 246.756 136.269C244.902 136.103 243.055 135.859 241.222 135.537Z" fill="white"/>
<path d="M0.5 310.655L0.5 454.734C0.5 460.895 6.62167 465.889 14.1731 465.889H116.722C124.273 465.889 130.395 460.895 130.395 454.734V310.655C130.395 304.494 124.273 299.5 116.722 299.5H14.1731C6.62167 299.5 0.5 304.494 0.5 310.655Z" fill="url(#paint8_linear)"/>
<path d="M0.784912 310.655L0.784912 454.734C0.784912 460.766 6.77905 465.656 14.1732 465.656H116.722C124.116 465.656 130.11 460.766 130.11 454.734V310.655C130.11 304.622 124.116 299.732 116.722 299.732H14.1732C6.77905 299.732 0.784912 304.622 0.784912 310.655Z" stroke="url(#paint9_linear)" stroke-opacity="0.4"/>
<path d="M64.238 329.565C63.4975 329.9 62.7632 330.25 62.0355 330.612C66.2479 336.761 68.7677 344.163 68.9004 352.167C69.0446 361.852 65.6111 371.254 59.2532 378.573C54.8663 383.239 55.7457 382.474 50.9853 386.929C42.8894 394.817 35.9017 404.777 35.8902 416.682C35.8902 421.408 36.7457 425.948 38.2882 430.162C42.6934 432.055 47.2926 433.462 52.0042 434.359C49.325 429.041 47.805 423.039 47.805 416.682C47.8266 407.343 51.1684 398.324 57.2291 391.218C58.4559 389.412 68.921 379.442 68.921 379.442C78.1152 371.817 81.002 364.201 80.8152 352.273C80.7229 346.834 79.5151 341.658 77.4222 336.959C73.3268 333.997 68.9029 331.516 64.238 329.565ZM57.2291 333.036C54.5365 334.533 51.9525 336.216 49.4963 338.075C50.2377 340.987 50.6657 344.027 50.7177 347.163C50.8626 356.848 47.4291 366.246 41.0705 373.565C36.6836 378.231 37.5596 377.466 32.7991 381.921C29.3808 385.251 26.1688 388.958 23.5877 393.018C23.9707 401.582 26.0301 409.989 29.6498 417.764C29.6498 417.403 29.6223 417.045 29.6223 416.682C29.6439 407.343 32.983 398.324 39.043 391.218C40.2704 389.412 50.7348 379.442 50.7348 379.442C59.9291 371.816 62.8158 364.198 62.629 352.27C62.5108 345.272 60.5593 338.705 57.2291 333.036ZM44.0896 342.644C32.8416 353.269 25.7084 367.511 23.9445 382.865C27.4422 379.313 32.5556 374.438 32.5556 374.438C41.7498 366.812 44.6366 359.197 44.4498 347.269C44.4209 345.704 44.2929 344.161 44.0896 342.644ZM86.1911 344.452C86.7312 346.943 87.0384 349.522 87.0831 352.167C87.2273 361.852 83.7945 371.254 77.4359 378.573C73.049 383.239 73.9257 382.474 69.1645 386.929C61.0686 394.817 54.0879 404.777 54.0763 416.682C54.0763 423.387 55.7817 429.719 58.7695 435.269C60.5743 435.458 62.3861 435.572 64.2003 435.611C66.3556 435.604 68.5093 435.491 70.6535 435.273C67.6786 429.734 65.9877 423.405 65.9877 416.682C66.0093 407.343 69.3518 398.324 75.4118 391.218C76.6393 389.412 87.1037 379.442 87.1037 379.442C93.6058 374.049 96.9404 368.651 98.2774 361.738C95.2075 355.364 91.1262 349.527 86.1911 344.452ZM101.502 369.553C99.9748 372.788 98.0028 375.828 95.6186 378.573C91.2317 383.239 92.1077 382.474 87.3472 386.929C79.2513 394.817 72.2679 404.777 72.2556 416.682C72.2556 423.034 73.7829 429.054 76.4822 434.389C80.0729 433.682 83.5981 432.676 87.0213 431.384C85.1895 426.84 84.1704 421.88 84.1704 416.682C84.192 407.343 87.5345 398.324 93.5945 391.218C94.6063 389.729 101.583 382.995 104.11 380.572C103.56 376.831 102.688 373.144 101.502 369.553ZM104.813 387.647C97.0286 395.42 90.4498 405.133 90.4383 416.682C90.4383 420.876 91.1156 424.921 92.3423 428.724C100.499 417.545 104.913 404.083 104.954 390.256C104.924 389.385 104.877 388.516 104.813 387.647ZM29.6498 417.767V417.805C29.676 417.854 29.7023 417.903 29.7287 417.952C29.7023 417.89 29.676 417.829 29.6498 417.767ZM53.2221 434.537C55.063 434.867 56.9173 435.12 58.7798 435.293C58.7798 435.293 58.7773 435.269 58.7558 435.269C56.9017 435.103 55.0554 434.859 53.2221 434.537Z" fill="#9FEAF9"/>
<path d="M187.5 609.655V753.734C187.5 759.895 193.622 764.889 201.173 764.889H303.722C311.273 764.889 317.395 759.895 317.395 753.734V609.655C317.395 603.494 311.273 598.5 303.722 598.5H201.173C193.622 598.5 187.5 603.494 187.5 609.655Z" fill="url(#paint10_linear)"/>
<path d="M187.785 609.655V753.734C187.785 759.766 193.779 764.656 201.173 764.656H303.722C311.116 764.656 317.11 759.766 317.11 753.734V609.655C317.11 603.622 311.116 598.732 303.722 598.732H201.173C193.779 598.732 187.785 603.622 187.785 609.655Z" stroke="url(#paint11_linear)" stroke-opacity="0.4"/>
<path d="M251.238 628.565C250.497 628.9 249.763 629.25 249.036 629.612C253.248 635.761 255.768 643.163 255.9 651.167C256.045 660.852 252.611 670.254 246.253 677.573C241.866 682.239 242.746 681.474 237.985 685.929C229.889 693.817 222.902 703.777 222.89 715.682C222.89 720.408 223.746 724.948 225.288 729.162C229.693 731.055 234.293 732.462 239.004 733.359C236.325 728.041 234.805 722.039 234.805 715.682C234.827 706.343 238.168 697.324 244.229 690.218C245.456 688.412 255.921 678.442 255.921 678.442C265.115 670.817 268.002 663.201 267.815 651.273C267.723 645.834 266.515 640.658 264.422 635.959C260.327 632.997 255.903 630.516 251.238 628.565ZM244.229 632.036C241.536 633.533 238.953 635.216 236.496 637.075C237.238 639.987 237.666 643.027 237.718 646.163C237.863 655.848 234.429 665.246 228.071 672.565C223.684 677.231 224.56 676.466 219.799 680.921C216.381 684.251 213.169 687.958 210.588 692.018C210.971 700.582 213.03 708.989 216.65 716.764C216.65 716.403 216.622 716.045 216.622 715.682C216.644 706.343 219.983 697.324 226.043 690.218C227.27 688.412 237.735 678.442 237.735 678.442C246.929 670.816 249.816 663.198 249.629 651.27C249.511 644.272 247.559 637.705 244.229 632.036ZM231.09 641.644C219.842 652.269 212.708 666.511 210.945 681.865C214.442 678.313 219.556 673.438 219.556 673.438C228.75 665.812 231.637 658.197 231.45 646.269C231.421 644.704 231.293 643.161 231.09 641.644ZM273.191 643.452C273.731 645.943 274.038 648.522 274.083 651.167C274.227 660.852 270.795 670.254 264.436 677.573C260.049 682.239 260.926 681.474 256.165 685.929C248.069 693.817 241.088 703.777 241.076 715.682C241.076 722.387 242.782 728.719 245.77 734.269C247.574 734.458 249.386 734.572 251.2 734.611C253.356 734.604 255.509 734.491 257.653 734.273C254.679 728.734 252.988 722.405 252.988 715.682C253.009 706.343 256.352 697.324 262.412 690.218C263.639 688.412 274.104 678.442 274.104 678.442C280.606 673.049 283.94 667.651 285.277 660.738C282.207 654.364 278.126 648.527 273.191 643.452ZM288.502 668.553C286.975 671.788 285.003 674.828 282.619 677.573C278.232 682.239 279.108 681.474 274.347 685.929C266.251 693.817 259.268 703.777 259.256 715.682C259.256 722.034 260.783 728.054 263.482 733.389C267.073 732.682 270.598 731.676 274.021 730.384C272.19 725.84 271.17 720.88 271.17 715.682C271.192 706.343 274.535 697.324 280.595 690.218C281.606 688.729 288.583 681.995 291.11 679.572C290.56 675.831 289.688 672.144 288.502 668.553ZM291.813 686.647C284.029 694.42 277.45 704.133 277.438 715.682C277.438 719.876 278.116 723.921 279.342 727.724C287.499 716.545 291.913 703.083 291.954 689.256C291.924 688.385 291.877 687.516 291.813 686.647ZM216.65 716.767V716.805C216.676 716.854 216.702 716.903 216.729 716.952C216.702 716.89 216.676 716.829 216.65 716.767ZM240.222 733.537C242.063 733.867 243.917 734.12 245.78 734.293C245.78 734.293 245.777 734.269 245.756 734.269C243.902 734.103 242.055 733.859 240.222 733.537Z" fill="#63F160"/>
<path d="M1426.5 286.356V478.248C1426.5 486.453 1434.65 493.104 1444.71 493.104H1581.29C1591.35 493.104 1599.5 486.453 1599.5 478.248V286.356C1599.5 278.151 1591.35 271.5 1581.29 271.5H1444.71C1434.65 271.5 1426.5 278.151 1426.5 286.356Z" fill="url(#paint12_linear)"/>
<path d="M1426.88 286.356V478.248C1426.88 486.282 1434.86 492.795 1444.71 492.795H1581.29C1591.14 492.795 1599.12 486.282 1599.12 478.248V286.356C1599.12 278.322 1591.14 271.81 1581.29 271.81H1444.71C1434.86 271.81 1426.88 278.322 1426.88 286.356Z" stroke="url(#paint13_linear)" stroke-opacity="0.4"/>
<path fill-rule="evenodd" clip-rule="evenodd" d="M1499.95 448.095H1495.45V431.405H1499.95V448.095ZM1497.71 424.866C1496.07 424.866 1495.26 425.607 1495.26 427.09C1495.26 428.583 1496.07 429.329 1497.71 429.329C1498.52 429.329 1499.14 429.133 1499.54 428.74C1499.95 428.347 1500.16 427.797 1500.16 427.09C1500.16 425.607 1499.34 424.866 1497.71 424.866ZM1555.29 440.421L1557.03 440.362V441.735C1557.03 442.741 1556.71 443.547 1556.09 444.154C1555.47 444.761 1554.63 445.064 1553.59 445.064C1552.13 445.064 1551.4 444.422 1551.4 443.139C1551.4 442.243 1551.72 441.576 1552.36 441.138C1553 440.7 1553.98 440.461 1555.29 440.421ZM1557.48 445.826L1558.36 448.095H1561.5V436.973C1561.5 434.982 1560.91 433.5 1559.73 432.524C1558.55 431.549 1556.85 431.061 1554.64 431.061C1552.32 431.061 1550.22 431.564 1548.32 432.569L1549.81 435.644C1551.59 434.838 1553.14 434.435 1554.46 434.435C1556.17 434.435 1557.03 435.281 1557.03 436.973V437.705L1554.16 437.794C1551.69 437.884 1549.85 438.349 1548.62 439.19C1547.4 440.031 1546.78 441.338 1546.78 443.109C1546.78 444.801 1547.24 446.104 1548.15 447.02C1549.06 447.936 1550.31 448.393 1551.89 448.393C1553.18 448.393 1554.23 448.207 1555.03 447.833C1555.83 447.46 1556.61 446.791 1557.37 445.826H1557.48ZM1529.13 448.095H1533.64V439.72C1533.64 437.988 1533.91 436.724 1534.46 435.928C1535 435.132 1535.83 434.733 1536.93 434.733C1537.78 434.733 1538.41 435.035 1538.81 435.637C1539.21 436.239 1539.41 437.143 1539.41 438.347V448.095H1543.93V437.212C1543.93 435.072 1543.45 433.517 1542.49 432.546C1541.53 431.576 1540.11 431.091 1538.24 431.091C1537.16 431.091 1536.19 431.305 1535.33 431.733C1534.47 432.161 1533.81 432.763 1533.37 433.54H1532.97C1532.1 431.907 1530.42 431.091 1527.95 431.091C1526.87 431.091 1525.91 431.308 1525.08 431.74C1524.24 432.173 1523.6 432.773 1523.16 433.54H1522.91L1522.3 431.405H1518.86V448.095H1523.36V440.243C1523.36 438.282 1523.62 436.874 1524.15 436.018C1524.67 435.162 1525.5 434.733 1526.65 434.733C1527.51 434.733 1528.14 435.035 1528.54 435.637C1528.93 436.239 1529.13 437.143 1529.13 438.347V448.095ZM1515.8 443.139C1515.8 444.851 1515.21 446.154 1514.04 447.05C1512.86 447.946 1511.1 448.394 1508.76 448.394C1507.56 448.394 1506.54 448.311 1505.69 448.147C1504.84 447.983 1504.05 447.742 1503.31 447.423V443.661C1504.15 444.059 1505.09 444.393 1506.14 444.661C1507.19 444.93 1508.11 445.064 1508.91 445.064C1510.54 445.064 1511.36 444.587 1511.36 443.631C1511.36 443.273 1511.25 442.982 1511.03 442.758C1510.82 442.534 1510.44 442.28 1509.91 441.996C1509.38 441.713 1508.67 441.382 1507.79 441.004C1506.52 440.467 1505.58 439.969 1504.99 439.511C1504.39 439.053 1503.96 438.528 1503.69 437.936C1503.42 437.344 1503.28 436.615 1503.28 435.749C1503.28 434.266 1503.85 433.119 1504.99 432.308C1506.12 431.497 1507.74 431.091 1509.82 431.091C1511.81 431.091 1513.74 431.529 1515.62 432.405L1514.27 435.689C1513.44 435.331 1512.67 435.037 1511.95 434.808C1511.23 434.579 1510.5 434.465 1509.75 434.465C1508.42 434.465 1507.76 434.828 1507.76 435.555C1507.76 435.963 1507.97 436.316 1508.4 436.615C1508.83 436.913 1509.76 437.356 1511.21 437.944C1512.5 438.471 1513.44 438.964 1514.04 439.421C1514.64 439.879 1515.09 440.406 1515.37 441.004C1515.66 441.601 1515.8 442.313 1515.8 443.139ZM1491.54 431.091C1492.15 431.091 1492.66 431.136 1493.06 431.225L1492.72 435.495C1492.36 435.396 1491.91 435.346 1491.39 435.346C1489.95 435.346 1488.84 435.719 1488.03 436.465C1487.23 437.212 1486.83 438.257 1486.83 439.601V448.095H1482.33V431.405H1485.74L1486.4 434.211H1486.62C1487.13 433.276 1487.83 432.522 1488.7 431.949C1489.57 431.377 1490.52 431.091 1491.54 431.091ZM1470.58 436.54H1469.08V430.061H1471.16C1472.41 430.061 1473.32 430.32 1473.91 430.837C1474.5 431.355 1474.79 432.156 1474.79 433.241C1474.79 434.316 1474.44 435.134 1473.74 435.697C1473.04 436.259 1471.99 436.54 1470.58 436.54ZM1477.23 438.466C1478.68 437.222 1479.41 435.426 1479.41 433.077C1479.41 430.817 1478.73 429.118 1477.36 427.978C1476 426.839 1474.01 426.269 1471.39 426.269H1464.5V448.095H1469.08V440.332H1471.04C1473.72 440.332 1475.78 439.71 1477.23 438.466Z" fill="#54C494"/>
<path fill-rule="evenodd" clip-rule="evenodd" d="M1547.83 386.967L1518.69 325.169V325.167C1517.96 323.622 1516.43 322.603 1514.71 322.508C1512.93 322.405 1511.34 323.259 1510.45 324.713L1478.84 375.834C1477.86 377.427 1477.88 379.392 1478.9 380.966L1494.35 404.865C1495.27 406.291 1496.86 407.117 1498.52 407.117C1498.99 407.117 1499.46 407.051 1499.93 406.913L1544.77 393.668C1546.15 393.262 1547.27 392.292 1547.86 391.005C1548.44 389.718 1548.44 388.245 1547.83 386.967ZM1541.31 389.618L1503.26 400.856C1502.09 401.2 1500.98 400.196 1501.22 399.025L1514.82 334.016C1515.07 332.8 1516.75 332.607 1517.29 333.733L1542.45 387.105C1542.93 388.112 1542.39 389.299 1541.31 389.618Z" fill="#54C494"/>
<path d="M1456.5 15.8589V136.745C1456.5 141.914 1461.64 146.104 1467.97 146.104H1554.01C1560.35 146.104 1565.49 141.914 1565.49 136.745V15.8589C1565.49 10.6901 1560.35 6.5 1554.01 6.5H1467.97C1461.64 6.5 1456.5 10.6901 1456.5 15.8589Z" fill="url(#paint14_linear)"/>
<path d="M1456.74 15.859V136.745C1456.74 141.807 1461.77 145.909 1467.97 145.909H1554.01C1560.22 145.909 1565.25 141.807 1565.25 136.745V15.859C1565.25 10.7978 1560.22 6.69499 1554.01 6.69499H1467.97C1461.77 6.69499 1456.74 10.7978 1456.74 15.859Z" stroke="url(#paint15_linear)" stroke-opacity="0.4"/>
<path d="M1059.5 546.173C1059.5 542.488 1062.42 539.5 1066.02 539.5H1272.98C1276.58 539.5 1279.5 542.488 1279.5 546.173V653.827C1279.5 657.512 1276.58 660.5 1272.98 660.5H1066.02C1062.42 660.5 1059.5 657.512 1059.5 653.827V546.173Z" fill="url(#paint16_linear)"/>
<path d="M1066.02 540H1272.98C1276.3 540 1279 542.752 1279 546.173V653.827C1279 657.248 1276.3 660 1272.98 660H1066.02C1062.7 660 1060 657.248 1060 653.827V546.173C1060 542.752 1062.7 540 1066.02 540Z" stroke="url(#paint17_linear)" stroke-opacity="0.4"/>
<path d="M1145.22 599.139C1145.22 600.478 1145.36 601.564 1145.62 602.361C1145.91 603.157 1146.27 604.026 1146.78 604.967C1146.96 605.257 1147.03 605.546 1147.03 605.8C1147.03 606.162 1146.81 606.524 1146.34 606.886L1144.06 608.406C1143.73 608.623 1143.4 608.732 1143.11 608.732C1142.75 608.732 1142.39 608.551 1142.03 608.225C1141.52 607.682 1141.08 607.103 1140.72 606.524C1140.36 605.908 1140 605.22 1139.6 604.388C1136.77 607.718 1133.22 609.383 1128.94 609.383C1125.89 609.383 1123.47 608.515 1121.69 606.777C1119.91 605.039 1119.01 602.723 1119.01 599.827C1119.01 596.75 1120.09 594.252 1122.31 592.369C1124.52 590.487 1127.45 589.546 1131.19 589.546C1132.42 589.546 1133.69 589.654 1135.03 589.835C1136.37 590.016 1137.75 590.306 1139.2 590.632V587.989C1139.2 585.238 1138.62 583.319 1137.5 582.197C1136.34 581.075 1134.38 580.532 1131.59 580.532C1130.32 580.532 1129.01 580.677 1127.67 581.002C1126.33 581.328 1125.02 581.726 1123.76 582.233C1123.18 582.487 1122.74 582.631 1122.49 582.704C1122.23 582.776 1122.05 582.812 1121.91 582.812C1121.4 582.812 1121.15 582.45 1121.15 581.69V579.916C1121.15 579.337 1121.22 578.903 1121.4 578.649C1121.58 578.396 1121.91 578.143 1122.41 577.889C1123.68 577.238 1125.21 576.695 1126.98 576.26C1128.76 575.79 1130.64 575.572 1132.64 575.572C1136.95 575.572 1140.11 576.55 1142.14 578.505C1144.13 580.459 1145.14 583.428 1145.14 587.41V599.139H1145.22ZM1130.5 604.641C1131.7 604.641 1132.93 604.424 1134.23 603.99C1135.54 603.555 1136.7 602.759 1137.68 601.673C1138.26 600.985 1138.69 600.225 1138.91 599.356C1139.13 598.487 1139.27 597.437 1139.27 596.207V594.686C1138.22 594.433 1137.1 594.216 1135.94 594.071C1134.78 593.926 1133.65 593.854 1132.53 593.854C1130.1 593.854 1128.32 594.324 1127.13 595.302C1125.93 596.279 1125.35 597.655 1125.35 599.465C1125.35 601.166 1125.79 602.433 1126.69 603.302C1127.56 604.207 1128.83 604.641 1130.5 604.641ZM1159.61 608.551C1158.96 608.551 1158.52 608.442 1158.23 608.189C1157.94 607.972 1157.69 607.465 1157.47 606.777L1148.95 578.794C1148.73 578.07 1148.62 577.6 1148.62 577.346C1148.62 576.767 1148.91 576.441 1149.5 576.441H1153.05C1153.74 576.441 1154.21 576.55 1154.46 576.803C1154.75 577.02 1154.97 577.527 1155.19 578.215L1161.28 602.18L1166.93 578.215C1167.11 577.491 1167.33 577.02 1167.62 576.803C1167.91 576.586 1168.42 576.441 1169.07 576.441H1171.97C1172.66 576.441 1173.13 576.55 1173.42 576.803C1173.71 577.02 1173.97 577.527 1174.11 578.215L1179.84 602.469L1186.11 578.215C1186.33 577.491 1186.58 577.02 1186.83 576.803C1187.12 576.586 1187.6 576.441 1188.25 576.441H1191.62C1192.2 576.441 1192.53 576.731 1192.53 577.346C1192.53 577.527 1192.49 577.708 1192.45 577.925C1192.42 578.143 1192.35 578.432 1192.2 578.83L1183.46 606.813C1183.25 607.537 1182.99 608.008 1182.7 608.225C1182.41 608.442 1181.94 608.587 1181.32 608.587H1178.21C1177.52 608.587 1177.05 608.478 1176.76 608.225C1176.47 607.972 1176.21 607.501 1176.07 606.777L1170.45 583.428L1164.87 606.741C1164.68 607.465 1164.47 607.935 1164.18 608.189C1163.89 608.442 1163.38 608.551 1162.73 608.551H1159.61ZM1206.19 609.528C1204.31 609.528 1202.42 609.311 1200.61 608.877C1198.8 608.442 1197.38 607.972 1196.44 607.429C1195.86 607.103 1195.46 606.741 1195.32 606.415C1195.17 606.089 1195.1 605.727 1195.1 605.401V603.555C1195.1 602.795 1195.39 602.433 1195.93 602.433C1196.15 602.433 1196.37 602.469 1196.59 602.542C1196.8 602.614 1197.13 602.759 1197.49 602.904C1198.73 603.447 1200.07 603.881 1201.48 604.171C1202.93 604.46 1204.34 604.605 1205.79 604.605C1208.08 604.605 1209.86 604.207 1211.09 603.41C1212.32 602.614 1212.97 601.456 1212.97 599.971C1212.97 598.958 1212.65 598.125 1211.99 597.437C1211.34 596.75 1210.11 596.134 1208.33 595.555L1203.08 593.926C1200.43 593.093 1198.47 591.863 1197.28 590.234C1196.08 588.641 1195.46 586.867 1195.46 584.984C1195.46 583.464 1195.79 582.125 1196.44 580.966C1197.09 579.808 1197.96 578.794 1199.05 577.998C1200.14 577.165 1201.37 576.55 1202.82 576.115C1204.27 575.681 1205.79 575.5 1207.39 575.5C1208.19 575.5 1209.02 575.536 1209.82 575.645C1210.65 575.753 1211.41 575.898 1212.18 576.043C1212.9 576.224 1213.59 576.405 1214.24 576.622C1214.89 576.839 1215.4 577.057 1215.76 577.274C1216.27 577.563 1216.63 577.853 1216.85 578.179C1217.07 578.468 1217.18 578.867 1217.18 579.373V581.075C1217.18 581.835 1216.89 582.233 1216.34 582.233C1216.05 582.233 1215.58 582.088 1214.97 581.799C1212.9 580.858 1210.58 580.387 1208.01 580.387C1205.94 580.387 1204.31 580.713 1203.18 581.401C1202.06 582.088 1201.48 583.138 1201.48 584.622C1201.48 585.636 1201.84 586.505 1202.57 587.193C1203.29 587.881 1204.63 588.568 1206.56 589.184L1211.7 590.813C1214.31 591.645 1216.2 592.804 1217.32 594.288C1218.45 595.772 1218.99 597.474 1218.99 599.356C1218.99 600.913 1218.66 602.324 1218.05 603.555C1217.4 604.786 1216.53 605.872 1215.4 606.741C1214.28 607.646 1212.94 608.297 1211.38 608.768C1209.75 609.275 1208.04 609.528 1206.19 609.528Z" fill="white"/>
<path fill-rule="evenodd" clip-rule="evenodd" d="M1213.05 627.122C1201.12 635.918 1183.79 640.588 1168.89 640.588C1148.01 640.588 1129.19 632.877 1114.98 620.063C1113.86 619.049 1114.87 617.673 1116.22 618.47C1131.59 627.375 1150.55 632.769 1170.16 632.769C1183.39 632.769 1197.93 630.018 1211.31 624.37C1213.3 623.465 1215 625.674 1213.05 627.122Z" fill="#FF9900"/>
<path fill-rule="evenodd" clip-rule="evenodd" d="M1218.01 621.474C1216.49 619.52 1207.93 620.533 1204.05 621.004C1202.89 621.149 1202.71 620.135 1203.76 619.375C1210.58 614.596 1221.78 615.972 1223.09 617.565C1224.39 619.194 1222.72 630.38 1216.34 635.737C1215.37 636.57 1214.42 636.135 1214.86 635.049C1216.31 631.466 1219.53 623.393 1218.01 621.474Z" fill="#FF9900"/>
<path d="M1552.5 230.522C1552.5 232.167 1551.39 233.5 1550.01 233.5L1470.99 233.5C1469.61 233.5 1468.5 232.167 1468.5 230.522L1468.5 182.478C1468.5 180.833 1469.61 179.5 1470.99 179.5L1550.01 179.5C1551.39 179.5 1552.5 180.833 1552.5 182.478L1552.5 230.522Z" fill="url(#paint18_linear)"/>
<path d="M1550.01 233L1470.99 233C1469.97 233 1469 231.979 1469 230.522L1469 182.478C1469 181.021 1469.97 180 1470.99 180L1550.01 180C1551.03 180 1552 181.021 1552 182.478L1552 230.522C1552 231.979 1551.03 233 1550.01 233Z" stroke="url(#paint19_linear)" stroke-opacity="0.4"/>
<path d="M830.522 340.5C832.167 340.5 833.5 341.614 833.5 342.988L833.5 422.012C833.5 423.386 832.167 424.5 830.522 424.5L782.478 424.5C780.833 424.5 779.5 423.386 779.5 422.012L779.5 342.988C779.5 341.614 780.833 340.5 782.478 340.5L830.522 340.5Z" fill="url(#paint20_linear)"/>
<path d="M833 342.988L833 422.012C833 423.03 831.979 424 830.522 424L782.478 424C781.021 424 780 423.03 780 422.012L780 342.988C780 341.97 781.021 341 782.478 341L830.522 341C831.979 341 833 341.97 833 342.988Z" stroke="url(#paint21_linear)" stroke-opacity="0.4"/>
<path d="M821.079 370.258C821.016 369.82 820.694 369.46 820.259 369.341L806.304 365.541C806.105 365.486 805.895 365.486 805.696 365.541L791.741 369.341C791.306 369.46 790.983 369.82 790.921 370.258C790.84 370.828 788.994 384.295 793.73 390.994C798.46 397.685 805.439 399.399 805.734 399.469C805.821 399.49 805.911 399.5 806 399.5C806.09 399.5 806.179 399.49 806.266 399.469C806.561 399.399 813.54 397.685 818.27 390.994C823.006 384.295 821.16 370.828 821.079 370.258ZM816.232 389.607C812.129 395.41 805.983 396.864 805.983 396.864V382.5H793.317C792.582 377.109 793.368 371.572 793.368 371.572L805.983 368.136V382.5H818.649C818.292 385.121 817.574 387.708 816.232 389.607Z" fill="#CACACA"/>
<path d="M1518 202.167H1516.75V199.69C1516.75 196.273 1513.95 193.5 1510.5 193.5C1507.05 193.5 1504.25 196.273 1504.25 199.69V202.167H1503C1501.62 202.167 1500.5 203.281 1500.5 204.643V217.024C1500.5 218.386 1501.62 219.5 1503 219.5H1518C1519.38 219.5 1520.5 218.386 1520.5 217.024V204.643C1520.5 203.281 1519.38 202.167 1518 202.167ZM1510.5 213.31C1509.12 213.31 1508 212.195 1508 210.833C1508 209.471 1509.12 208.357 1510.5 208.357C1511.88 208.357 1513 209.471 1513 210.833C1513 212.195 1511.88 213.31 1510.5 213.31ZM1514.38 202.167H1506.62V199.69C1506.62 197.573 1508.36 195.852 1510.5 195.852C1512.64 195.852 1514.38 197.573 1514.38 199.69V202.167Z" fill="white"/>
<path d="M1535.5 92.3898V98.6372C1535.5 103.53 1523.86 107.5 1510.5 107.5C1497.14 107.5 1485.5 103.53 1485.5 98.6372V92.3898C1491.54 96.8072 1503.01 98.1238 1510.5 98.1238C1518.02 98.1238 1529.47 96.7945 1535.5 92.3898ZM1510.5 83.7253C1502.98 83.7253 1491.53 82.396 1485.5 77.9913V84.1777C1485.5 89.0729 1497.14 93.0405 1510.5 93.0405C1523.86 93.0405 1535.5 89.0704 1535.5 84.1777V77.9913C1529.46 82.4087 1517.99 83.7253 1510.5 83.7253ZM1510.5 46.5C1497.14 46.5 1485.5 50.4701 1485.5 55.3653C1485.5 60.2606 1497.14 64.2281 1510.5 64.2281C1523.86 64.2281 1535.5 60.258 1535.5 55.3653C1535.5 50.4701 1523.86 46.5 1510.5 46.5V46.5ZM1510.5 69.3115C1502.98 69.3115 1491.53 67.9822 1485.5 63.5775V69.7791C1485.5 74.6744 1497.14 78.6419 1510.5 78.6419C1523.86 78.6419 1535.5 74.6718 1535.5 69.7791V63.5775C1529.46 67.9949 1517.99 69.3115 1510.5 69.3115Z" fill="white"/>
<defs>
<linearGradient id="paint0_linear" x1="330.549" y1="-16.9557" x2="862.904" y2="319.89" gradientUnits="userSpaceOnUse">
<stop offset="0.226599" stop-color="#353A40"/>
<stop offset="0.697917" stop-color="#121416"/>
</linearGradient>
<linearGradient id="paint1_linear" x1="252.5" y1="248.5" x2="918.44" y2="360.606" gradientUnits="userSpaceOnUse">
<stop offset="0.0708612" stop-color="#53595F"/>
<stop offset="0.0709612" stop-color="#53595F"/>
<stop offset="0.722291" stop-opacity="0"/>
<stop offset="1"/>
</linearGradient>
<linearGradient id="paint2_linear" x1="951.549" y1="-16.9557" x2="1483.9" y2="319.89" gradientUnits="userSpaceOnUse">
<stop offset="0.226599" stop-color="#353A40"/>
<stop offset="0.697917" stop-color="#121416"/>
</linearGradient>
<linearGradient id="paint3_linear" x1="873.5" y1="248.5" x2="1539.44" y2="360.606" gradientUnits="userSpaceOnUse">
<stop offset="0.0708612" stop-color="#53595F"/>
<stop offset="0.0709612" stop-color="#53595F"/>
<stop offset="0.722291" stop-opacity="0"/>
<stop offset="1"/>
</linearGradient>
<linearGradient id="paint4_linear" x1="602" y1="-41" x2="983.477" y2="254.215" gradientUnits="userSpaceOnUse">
<stop offset="0.226599" stop-color="#353A40"/>
<stop offset="0.697917" stop-color="#121416"/>
</linearGradient>
<linearGradient id="paint5_linear" x1="923.864" y1="33.6586" x2="667.027" y2="225.923" gradientUnits="userSpaceOnUse">
<stop offset="0.0709612" stop-color="#505962"/>
<stop offset="0.507086" stop-opacity="0"/>
<stop offset="1"/>
</linearGradient>
<linearGradient id="paint6_linear" x1="95.7181" y1="-18.8132" x2="443.144" y2="141.273" gradientUnits="userSpaceOnUse">
<stop offset="0.226599" stop-color="#353A40"/>
<stop offset="0.697917" stop-color="#121416"/>
</linearGradient>
<linearGradient id="paint7_linear" x1="183.088" y1="15.6051" x2="285.482" y2="186.903" gradientUnits="userSpaceOnUse">
<stop offset="0.0709612" stop-color="#505962"/>
<stop offset="0.507086" stop-opacity="0"/>
<stop offset="1"/>
</linearGradient>
<linearGradient id="paint8_linear" x1="-92.2819" y1="280.187" x2="255.144" y2="440.273" gradientUnits="userSpaceOnUse">
<stop offset="0.226599" stop-color="#353A40"/>
<stop offset="0.697917" stop-color="#121416"/>
</linearGradient>
<linearGradient id="paint9_linear" x1="-4.91223" y1="314.605" x2="97.4816" y2="485.903" gradientUnits="userSpaceOnUse">
<stop offset="0.0709612" stop-color="#505962"/>
<stop offset="0.507086" stop-opacity="0"/>
<stop offset="1"/>
</linearGradient>
<linearGradient id="paint10_linear" x1="94.7181" y1="579.187" x2="442.144" y2="739.273" gradientUnits="userSpaceOnUse">
<stop offset="0.226599" stop-color="#353A40"/>
<stop offset="0.697917" stop-color="#121416"/>
</linearGradient>
<linearGradient id="paint11_linear" x1="182.088" y1="613.605" x2="284.482" y2="784.903" gradientUnits="userSpaceOnUse">
<stop offset="0.0709612" stop-color="#505962"/>
<stop offset="0.507086" stop-opacity="0"/>
<stop offset="1"/>
</linearGradient>
<linearGradient id="paint12_linear" x1="1302.93" y1="245.778" x2="1765.65" y2="458.988" gradientUnits="userSpaceOnUse">
<stop offset="0.226599" stop-color="#353A40"/>
<stop offset="0.697917" stop-color="#121416"/>
</linearGradient>
<linearGradient id="paint13_linear" x1="1419.29" y1="291.618" x2="1555.66" y2="519.761" gradientUnits="userSpaceOnUse">
<stop offset="0.0709612" stop-color="#505962"/>
<stop offset="0.507086" stop-opacity="0"/>
<stop offset="1"/>
</linearGradient>
<linearGradient id="paint14_linear" x1="1378.65" y1="-9.70424" x2="1670.15" y2="124.612" gradientUnits="userSpaceOnUse">
<stop offset="0.226599" stop-color="#353A40"/>
<stop offset="0.697917" stop-color="#121416"/>
</linearGradient>
<linearGradient id="paint15_linear" x1="1451.96" y1="19.1736" x2="1537.87" y2="162.897" gradientUnits="userSpaceOnUse">
<stop offset="0.0709612" stop-color="#505962"/>
<stop offset="0.507086" stop-opacity="0"/>
<stop offset="1"/>
</linearGradient>
<linearGradient id="paint16_linear" x1="1094.83" y1="419.649" x2="1335.45" y2="572.301" gradientUnits="userSpaceOnUse">
<stop offset="0.226599" stop-color="#353A40"/>
<stop offset="0.697917" stop-color="#121416"/>
</linearGradient>
<linearGradient id="paint17_linear" x1="1059.5" y1="539.5" x2="1360.91" y2="590.373" gradientUnits="userSpaceOnUse">
<stop offset="0.0708612" stop-color="#53595F"/>
<stop offset="0.0709612" stop-color="#53595F"/>
<stop offset="0.722291" stop-opacity="0"/>
<stop offset="1"/>
</linearGradient>
<linearGradient id="paint18_linear" x1="1468.5" y1="170" x2="1574.16" y2="185.547" gradientUnits="userSpaceOnUse">
<stop offset="0.226599" stop-color="#353A40"/>
<stop offset="0.697917" stop-color="#121416"/>
</linearGradient>
<linearGradient id="paint19_linear" x1="1552.5" y1="233.5" x2="1436.56" y2="216.757" gradientUnits="userSpaceOnUse">
<stop offset="0.0708612" stop-color="#53595F"/>
<stop offset="0.0709612" stop-color="#53595F"/>
<stop offset="0.722291" stop-opacity="0"/>
<stop offset="1"/>
</linearGradient>
<linearGradient id="paint20_linear" x1="779.5" y1="340.5" x2="875.038" y2="392.605" gradientUnits="userSpaceOnUse">
<stop offset="0.226599" stop-color="#353A40"/>
<stop offset="0.697917" stop-color="#121416"/>
</linearGradient>
<linearGradient id="paint21_linear" x1="833.5" y1="340.5" x2="816.757" y2="456.445" gradientUnits="userSpaceOnUse">
<stop offset="0.0708612" stop-color="#53595F"/>
<stop offset="0.0709612" stop-color="#53595F"/>
<stop offset="0.722291" stop-opacity="0"/>
<stop offset="1"/>
</linearGradient>
</defs>
</svg>
