<svg width="199" height="224" viewBox="0 0 199 224" fill="none" xmlns="http://www.w3.org/2000/svg">
<path d="M9.9077 165.677L18.116 170.416L109.559 12.0365L101.351 7.29731L9.9077 165.677Z" fill="#E535AB"/>
<path d="M190.915 153.024H8.02808V162.502H190.915V153.024Z" fill="#E535AB"/>
<path d="M11.6469 158.349L103.125 211.165L107.864 202.957L16.3861 150.141L11.6469 158.349Z" fill="#E535AB"/>
<path d="M91.1135 20.6963L182.591 73.5125L187.33 65.3043L95.8526 12.4881L91.1135 20.6963Z" fill="#E535AB"/>
<path d="M11.6723 65.2682L16.4115 73.4765L107.889 20.6603L103.15 12.4521L11.6723 65.2682Z" fill="#E535AB"/>
<path d="M89.4612 12.0383L180.905 170.418L189.113 165.679L97.6694 7.29909L89.4612 12.0383Z" fill="#E535AB"/>
<path d="M24.758 58.9828H15.2797V164.615H24.758V58.9828Z" fill="#E535AB"/>
<path d="M183.72 58.9828H174.242V164.615H183.72V58.9828Z" fill="#E535AB"/>
<path d="M97.3713 199.983L101.511 207.153L181.072 161.217L176.932 154.047L97.3713 199.983Z" fill="#E535AB"/>
<path d="M196.282 167.698C190.801 177.234 178.582 180.489 169.046 175.007C159.511 169.526 156.256 157.307 161.737 147.771C167.219 138.236 179.438 134.981 188.974 140.462C198.566 146.001 201.821 158.163 196.282 167.698Z" fill="#E535AB"/>
<path d="M37.2055 75.8268C31.724 85.3623 19.5049 88.6169 9.96945 83.1355C0.433987 77.654 -2.82063 65.4349 2.66083 55.8994C8.14229 46.364 20.3614 43.1094 29.8968 48.5908C39.4323 54.1294 42.6869 66.2914 37.2055 75.8268Z" fill="#E535AB"/>
<path d="M2.71796 167.698C-2.7635 158.163 0.491115 146.001 10.0266 140.462C19.562 134.981 31.724 138.236 37.2626 147.771C42.7441 157.307 39.4894 169.469 29.954 175.007C20.3614 180.489 8.19942 177.234 2.71796 167.698Z" fill="#E535AB"/>
<path d="M161.795 75.8268C156.313 66.2914 159.568 54.1294 169.103 48.5908C178.639 43.1094 190.801 46.364 196.339 55.8994C201.821 65.4349 198.566 77.5969 189.031 83.1355C179.495 88.6169 167.276 85.3623 161.795 75.8268Z" fill="#E535AB"/>
<path d="M99.5 223.598C88.48 223.598 79.5726 214.691 79.5726 203.671C79.5726 192.651 88.48 183.743 99.5 183.743C110.52 183.743 119.427 192.651 119.427 203.671C119.427 214.633 110.52 223.598 99.5 223.598Z" fill="#E535AB"/>
<path d="M99.5 39.8548C88.48 39.8548 79.5726 30.9474 79.5726 19.9274C79.5726 8.90738 88.48 0 99.5 0C110.52 0 119.427 8.90738 119.427 19.9274C119.427 30.9474 110.52 39.8548 99.5 39.8548Z" fill="#E535AB"/>
</svg>
