<svg width="235" height="305" viewBox="0 0 235 305" fill="none" xmlns="http://www.w3.org/2000/svg">
<path fill-rule="evenodd" clip-rule="evenodd" d="M85.8844 304.276H74.9764V263.841H85.8844V304.276ZM80.4493 248C76.4918 248 74.513 249.796 74.513 253.388C74.513 257.005 76.4918 258.813 80.4493 258.813C82.4281 258.813 83.9119 258.338 84.9019 257.385C85.8907 256.433 86.3857 255.101 86.3857 253.388C86.3857 249.796 84.4056 248 80.4493 248ZM219.944 285.686L224.164 285.541V288.868C224.164 291.305 223.406 293.258 221.892 294.728C220.38 296.199 218.358 296.934 215.831 296.934C212.303 296.934 210.539 295.379 210.539 292.269C210.539 290.098 211.313 288.484 212.863 287.423C214.413 286.361 216.773 285.783 219.944 285.686ZM225.273 298.779L227.383 304.276H235V277.331C235 272.509 233.569 268.916 230.709 266.554C227.848 264.191 223.735 263.008 218.37 263.008C212.769 263.008 207.666 264.227 203.064 266.662L206.676 274.113C210.991 272.159 214.746 271.183 217.941 271.183C222.089 271.183 224.164 273.233 224.164 277.331V279.104L217.226 279.321C211.242 279.538 206.767 280.666 203.797 282.703C200.829 284.741 199.345 287.905 199.345 292.196C199.345 296.296 200.448 299.454 202.653 301.672C204.859 303.891 207.879 304.999 211.719 304.999C214.842 304.999 217.375 304.547 219.318 303.643C221.261 302.739 223.15 301.118 224.986 298.779H225.273ZM156.589 304.276H167.497V283.986C167.497 279.791 168.158 276.729 169.481 274.8C170.805 272.871 172.802 271.906 175.471 271.906C177.546 271.906 179.065 272.636 180.032 274.095C180.996 275.553 181.48 277.742 181.48 280.659V304.276H192.423V277.909C192.423 272.726 191.261 268.958 188.936 266.607C186.613 264.257 183.184 263.081 178.655 263.081C176.032 263.081 173.678 263.6 171.592 264.637C169.506 265.674 167.926 267.132 166.853 269.013H165.888C163.765 265.059 159.713 263.081 153.729 263.081C151.106 263.081 148.781 263.606 146.754 264.655C144.729 265.703 143.178 267.156 142.106 269.013H141.497L140.031 263.841H131.698V304.276H142.606V285.253C142.606 280.502 143.237 277.091 144.501 275.017C145.765 272.943 147.792 271.906 150.58 271.906C152.655 271.906 154.174 272.636 155.142 274.095C156.105 275.553 156.589 277.742 156.589 280.659V304.276ZM124.286 292.269C124.286 296.417 122.862 299.575 120.012 301.745C117.163 303.914 112.901 305 107.227 305C104.318 305 101.84 304.801 99.7895 304.402C97.7387 304.005 95.8193 303.42 94.0312 302.649V293.534C96.058 294.5 98.3398 295.307 100.881 295.958C103.419 296.608 105.654 296.934 107.585 296.934C111.542 296.934 113.522 295.777 113.522 293.463C113.522 292.594 113.26 291.889 112.736 291.347C112.21 290.804 111.305 290.19 110.017 289.501C108.73 288.814 107.013 288.013 104.867 287.096C101.792 285.795 99.5319 284.59 98.091 283.48C96.6477 282.371 95.5983 281.099 94.9442 279.664C94.2875 278.23 93.9592 276.463 93.9592 274.365C93.9592 270.773 95.3356 267.995 98.091 266.03C100.844 264.064 104.747 263.082 109.802 263.082C114.618 263.082 119.303 264.143 123.857 266.265L120.567 274.221C118.565 273.352 116.692 272.642 114.952 272.087C113.212 271.533 111.435 271.255 109.624 271.255C106.405 271.255 104.795 272.135 104.795 273.895C104.795 274.885 105.315 275.741 106.351 276.463C107.389 277.186 109.659 278.26 113.164 279.683C116.288 280.961 118.577 282.154 120.031 283.263C121.484 284.372 122.557 285.65 123.249 287.096C123.941 288.543 124.286 290.267 124.286 292.269ZM65.5065 263.081C66.9852 263.081 68.2126 263.19 69.19 263.407L68.3679 273.75C67.4852 273.51 66.4131 273.389 65.1491 273.389C61.6676 273.389 58.9564 274.293 57.0117 276.101C55.0696 277.91 54.0985 280.442 54.0985 283.697V304.277H43.1906V263.841H51.4517L53.0617 270.641H53.5972C54.8372 268.375 56.5117 266.547 58.623 265.161C60.7319 263.775 63.0263 263.081 65.5065 263.081ZM14.7341 276.283H11.086V260.586H16.1283C19.1564 260.586 21.3789 261.213 22.7983 262.467C24.2164 263.721 24.9261 265.662 24.9261 268.289C24.9261 270.893 24.08 272.877 22.3866 274.239C20.6932 275.602 18.1437 276.283 14.7341 276.283ZM30.8435 280.948C34.3616 277.934 36.1194 273.583 36.1194 267.892C36.1194 262.418 34.4689 258.301 31.1667 255.54C27.8646 252.78 23.0433 251.4 16.7003 251.4H0V304.276H11.086V285.469H15.8429C22.3273 285.469 27.3279 283.963 30.8435 280.948Z" fill="white"/>
<path fill-rule="evenodd" clip-rule="evenodd" d="M201.888 156.182L131.286 6.46501V6.46181C129.516 2.71896 125.821 0.249349 121.633 0.0203251C117.337 -0.229518 113.488 1.8397 111.316 5.36154L34.7453 129.21C32.3734 133.07 32.4199 137.83 34.8801 141.643L72.3091 199.543C74.54 203 78.4051 205 82.4225 205C83.5612 205 84.7063 204.84 85.8322 204.507L194.478 172.418C197.806 171.434 200.528 169.083 201.952 165.967C203.371 162.848 203.349 159.28 201.888 156.182ZM186.08 162.605L93.896 189.832C91.0797 190.664 88.3806 188.232 88.9724 185.395L121.904 27.8987C122.52 24.9535 126.597 24.4858 127.883 27.2133L188.859 156.517C190.009 158.956 188.697 161.833 186.08 162.605Z" fill="white"/>
</svg>
