<svg width="231" height="205" viewBox="0 0 231 205" fill="none" xmlns="http://www.w3.org/2000/svg">
<path d="M230.178 102.405C230.178 87.1729 211.083 72.7378 181.806 63.7862C188.562 33.9787 185.559 10.2639 172.329 2.67142C169.279 0.890474 165.713 0.0468664 161.819 0.0468664V10.4982C163.977 10.4982 165.713 10.92 167.168 11.7168C173.548 15.3724 176.317 29.292 174.158 47.1952C173.642 51.6007 172.798 56.2406 171.766 60.9741C162.57 58.7245 152.529 56.9904 141.973 55.8656C135.639 47.1952 129.071 39.3215 122.455 32.432C137.75 18.2313 152.107 10.4514 161.866 10.4514V0C148.964 0 132.073 9.18596 114.995 25.1208C97.9172 9.27969 81.0268 0.187469 68.1245 0.187469V10.6388C77.8364 10.6388 92.2402 18.3719 107.535 32.4789C100.967 39.3684 94.3984 47.1952 88.1583 55.8656C77.5549 56.9904 67.5145 58.7245 58.3187 61.021C57.2396 56.3343 56.442 51.7882 55.8789 47.4295C53.6738 29.5263 56.395 15.6068 62.7289 11.9043C64.1365 11.0606 65.9663 10.6857 68.1245 10.6857V0.234336C64.1834 0.234336 60.6176 1.07794 57.5211 2.85889C44.3372 10.4514 41.3814 34.1193 48.1845 63.833C19.0017 72.8315 0 87.2197 0 102.405C0 117.636 19.0955 132.072 48.3721 141.023C41.616 170.831 44.6187 194.545 57.8495 202.138C60.8991 203.919 64.4649 204.762 68.406 204.762C81.3083 204.762 98.1987 195.577 115.277 179.642C132.355 195.483 149.245 204.575 162.147 204.575C166.089 204.575 169.654 203.731 172.751 201.95C185.935 194.358 188.891 170.69 182.087 140.976C211.176 132.025 230.178 117.59 230.178 102.405ZM169.091 71.1443C167.355 77.1902 165.197 83.4235 162.757 89.6568C160.834 85.9074 158.816 82.1581 156.611 78.4087C154.453 74.6593 152.154 71.0037 149.855 67.4418C156.517 68.426 162.945 69.6446 169.091 71.1443ZM147.603 121.058C143.943 127.385 140.19 133.384 136.296 138.961C129.305 139.57 122.221 139.898 115.089 139.898C108.004 139.898 100.92 139.57 93.9761 139.008C90.0819 133.431 86.2816 127.479 82.622 121.198C79.0563 115.059 75.819 108.825 72.8632 102.545C75.772 96.2651 79.0563 89.9849 82.5751 83.8453C86.2347 77.5182 89.9881 71.5192 93.8823 65.942C100.873 65.3328 107.958 65.0047 115.089 65.0047C122.174 65.0047 129.258 65.3328 136.202 65.8952C140.096 71.4724 143.897 77.4245 147.556 83.7047C151.122 89.8443 154.359 96.0776 157.315 102.358C154.359 108.638 151.122 114.918 147.603 121.058ZM162.757 114.965C165.291 121.245 167.449 127.525 169.232 133.618C163.086 135.118 156.611 136.383 149.902 137.368C152.201 133.759 154.5 130.056 156.658 126.26C158.816 122.511 160.834 118.714 162.757 114.965ZM115.183 164.972C110.82 160.473 106.456 155.458 102.14 149.975C106.362 150.162 110.679 150.303 115.042 150.303C119.452 150.303 123.816 150.209 128.085 149.975C123.863 155.458 119.499 160.473 115.183 164.972ZM80.2761 137.368C73.6138 136.383 67.1861 135.165 61.0399 133.665C62.7758 127.619 64.9341 121.386 67.3738 115.153C69.2974 118.902 71.3149 122.651 73.52 126.401C75.7251 130.15 77.9772 133.806 80.2761 137.368ZM114.948 39.8371C119.312 44.3363 123.675 49.3511 127.991 54.8345C123.769 54.6471 119.452 54.5065 115.089 54.5065C110.679 54.5065 106.315 54.6002 102.046 54.8345C106.269 49.3511 110.632 44.3363 114.948 39.8371ZM80.2292 67.4418C77.9303 71.0506 75.6313 74.7531 73.4731 78.5493C71.3149 82.2987 69.2974 86.048 67.3738 89.7974C64.8402 83.5172 62.682 77.237 60.8991 71.1443C67.0454 69.6914 73.52 68.426 80.2292 67.4418ZM37.7687 126.119C21.1599 119.043 10.4157 109.763 10.4157 102.405C10.4157 95.0465 21.1599 85.72 37.7687 78.6899C41.8037 76.9558 46.2139 75.4092 50.7649 73.9563C53.4392 83.1423 56.9581 92.7032 61.3214 102.498C57.005 112.247 53.5331 121.761 50.9057 130.9C46.2608 129.447 41.8506 127.854 37.7687 126.119ZM63.0104 193.093C56.6296 189.437 53.8615 175.517 56.0197 157.614C56.5358 153.209 57.3803 148.569 58.4125 143.835C67.6084 146.085 77.6488 147.819 88.2052 148.944C94.5391 157.614 101.108 165.488 107.723 172.377C92.4278 186.578 78.071 194.358 68.3121 194.358C66.2008 194.311 64.418 193.889 63.0104 193.093ZM174.299 157.38C176.504 175.283 173.783 189.203 167.449 192.905C166.042 193.749 164.212 194.124 162.054 194.124C152.342 194.124 137.938 186.391 122.643 172.284C129.211 165.394 135.78 157.567 142.02 148.897C152.623 147.772 162.664 146.038 171.859 143.741C172.939 148.475 173.783 153.021 174.299 157.38ZM192.362 126.119C188.328 127.854 183.917 129.4 179.366 130.853C176.692 121.667 173.173 112.106 168.81 102.311C173.126 92.5626 176.598 83.0485 179.226 73.9095C183.87 75.3623 188.281 76.9558 192.409 78.6899C209.018 85.7668 219.762 95.0465 219.762 102.405C219.715 109.763 208.971 119.089 192.362 126.119Z" fill="#61DAFB"/>
<path d="M115.042 123.823C126.884 123.823 136.484 114.234 136.484 102.405C136.484 90.5757 126.884 80.9865 115.042 80.9865C103.2 80.9865 93.6008 90.5757 93.6008 102.405C93.6008 114.234 103.2 123.823 115.042 123.823Z" fill="#61DAFB"/>
</svg>
